<svg version="1.1" viewBox="0 178.44605800000002 1251.8768768768768 581.56" xmlns:xlink="http://www.w3.org/1999/xlink" xmlns="http://www.w3.org/2000/svg" style="max-height: 500px" width="1251.8768768768768" height="581.56">
<defs>
<clipPath id="clip1">
  <path d="M 346.355469 191 L 901.910156 191 L 901.910156 747 L 346.355469 747 Z M 346.355469 191"/>
</clipPath>
<clipPath id="clip2">
  <path d="M 590.832031 480 L 790.796875 480 L 790.796875 485 L 590.832031 485 Z M 590.832031 480"/>
</clipPath>
<clipPath id="clip3">
  <path d="M 591.328125 434.378906 L 790.300781 434.378906 L 790.300781 475.859375 L 591.328125 475.859375 Z M 591.328125 434.378906"/>
</clipPath>
<clipPath id="clip4">
  <path d="M 629.332031 488.414062 L 752.296875 488.414062 L 752.296875 503.617188 L 629.332031 503.617188 Z M 629.332031 488.414062"/>
</clipPath>
<clipPath id="clip5">
  <path d="M 457.464844 428.085938 L 581.042969 428.085938 L 581.042969 509.914062 L 457.464844 509.914062 Z M 457.464844 428.085938"/>
</clipPath>
</defs>
<g id="surface1">
<rect style="fill:rgb(97.254902%,96.078431%,94.117647%);fill-opacity:1;stroke:none;" height="938" width="1250" y="0" x="0"/>
<g clip-rule="nonzero" clip-path="url(#clip1)">
<path d="M 880.945312 468.996094 L 892.359375 449.21875 C 912.015625 415.160156 900.355469 371.609375 866.3125 351.941406 L 846.542969 340.519531 L 846.542969 317.679688 C 846.542969 278.351562 814.679688 246.46875 775.375 246.46875 L 752.542969 246.46875 L 741.128906 226.691406 C 721.472656 192.632812 677.945312 180.964844 643.90625 200.628906 L 624.128906 212.046875 L 604.359375 200.625 C 570.320312 180.964844 526.792969 192.632812 507.136719 226.691406 L 495.722656 246.46875 L 472.890625 246.46875 C 433.585938 246.46875 401.71875 278.351562 401.71875 317.679688 L 401.71875 340.519531 L 381.953125 351.941406 C 347.910156 371.609375 336.25 415.160156 355.90625 449.21875 L 367.3125 468.996094 L 355.898438 488.777344 C 336.25 522.835938 347.910156 566.386719 381.953125 586.050781 L 401.71875 597.472656 L 401.71875 620.316406 C 401.71875 659.644531 433.585938 691.523438 472.890625 691.523438 L 495.722656 691.523438 L 507.136719 711.304688 C 526.792969 745.363281 570.320312 757.03125 604.359375 737.367188 L 624.128906 725.949219 L 643.898438 737.371094 C 677.9375 757.039062 721.464844 745.371094 741.121094 711.3125 L 752.539062 691.53125 L 775.367188 691.53125 C 814.671875 691.53125 846.539062 659.648438 846.539062 620.324219 L 846.539062 597.480469 L 866.308594 586.058594 C 900.347656 566.394531 912.007812 522.84375 892.355469 488.785156 Z M 863.199219 357.335938 C 878.222656 366.015625 888.964844 380.027344 893.453125 396.789062 C 897.945312 413.550781 895.644531 431.066406 886.96875 446.09375 L 877.355469 462.761719 L 846.542969 409.367188 L 846.542969 347.710938 Z M 782.386719 627.339844 L 682.054688 685.296875 L 566.203125 685.296875 L 465.871094 627.339844 L 407.945312 526.953125 L 407.945312 411.042969 L 465.871094 310.65625 L 566.203125 252.699219 L 682.054688 252.699219 L 782.386719 310.65625 L 840.3125 411.042969 L 840.3125 526.953125 Z M 840.304688 539.417969 L 840.304688 593.875 L 793.167969 621.105469 Z M 776.15625 638.128906 L 748.941406 685.289062 L 694.511719 685.289062 Z M 671.265625 691.523438 L 624.128906 718.753906 L 576.992188 691.523438 Z M 553.746094 685.289062 L 499.316406 685.289062 L 472.101562 638.128906 Z M 455.089844 621.105469 L 407.953125 593.875 L 407.953125 539.417969 Z M 401.71875 516.160156 L 374.503906 468.996094 L 401.71875 421.835938 Z M 407.953125 398.578125 L 407.953125 344.121094 L 455.089844 316.890625 Z M 472.101562 299.867188 L 499.316406 252.707031 L 553.746094 252.707031 Z M 576.992188 246.46875 L 624.128906 219.242188 L 671.265625 246.46875 Z M 694.511719 252.707031 L 748.941406 252.707031 L 776.15625 299.867188 Z M 793.167969 316.890625 L 840.304688 344.121094 L 840.304688 398.578125 Z M 846.539062 421.835938 L 873.753906 468.996094 L 846.539062 516.160156 Z M 775.367188 252.707031 C 792.714844 252.707031 809.023438 259.460938 821.292969 271.738281 C 833.554688 284.007812 840.3125 300.328125 840.3125 317.683594 L 840.3125 336.929688 L 786.945312 306.101562 L 756.132812 252.707031 Z M 647.015625 206.023438 C 662.039062 197.34375 679.539062 195.042969 696.292969 199.535156 C 713.046875 204.027344 727.050781 214.78125 735.722656 229.808594 L 745.339844 246.476562 L 683.714844 246.476562 L 630.347656 215.648438 Z M 512.527344 229.800781 C 521.203125 214.769531 535.207031 204.019531 551.960938 199.527344 C 568.710938 195.035156 586.21875 197.339844 601.238281 206.015625 L 617.898438 215.636719 L 564.527344 246.464844 L 502.90625 246.464844 Z M 407.953125 317.679688 C 407.953125 300.320312 414.703125 284.007812 426.972656 271.730469 C 439.238281 259.460938 455.550781 252.699219 472.898438 252.699219 L 492.132812 252.699219 L 461.320312 306.097656 L 407.953125 336.921875 Z M 361.296875 446.101562 C 352.621094 431.066406 350.320312 413.558594 354.808594 396.796875 C 359.300781 380.035156 370.050781 366.023438 385.066406 357.34375 L 401.726562 347.722656 L 401.726562 409.378906 L 370.917969 462.777344 Z M 385.0625 580.660156 C 370.035156 571.980469 359.292969 557.96875 354.804688 541.207031 C 350.3125 524.445312 352.613281 506.929688 361.289062 491.902344 L 370.902344 475.234375 L 401.714844 528.628906 L 401.714844 590.285156 Z M 472.890625 685.289062 C 455.542969 685.289062 439.238281 678.535156 426.96875 666.257812 C 414.703125 653.988281 407.945312 637.667969 407.945312 620.3125 L 407.945312 601.066406 L 461.3125 631.894531 L 492.125 685.289062 Z M 601.246094 731.972656 C 586.21875 740.648438 568.71875 742.953125 551.964844 738.460938 C 535.210938 733.96875 521.207031 723.214844 512.535156 708.1875 L 502.921875 691.519531 L 564.542969 691.519531 L 617.910156 722.347656 Z M 735.730469 708.195312 C 727.058594 723.226562 713.054688 733.972656 696.300781 738.46875 C 679.546875 742.960938 662.039062 740.65625 647.019531 731.976562 L 630.359375 722.359375 L 683.730469 691.53125 L 745.351562 691.53125 Z M 840.304688 620.316406 C 840.304688 637.675781 833.554688 653.988281 821.285156 666.265625 C 809.023438 678.535156 792.707031 685.296875 775.363281 685.296875 L 756.125 685.296875 L 786.9375 631.898438 L 840.304688 601.070312 Z M 893.453125 541.199219 C 888.964844 557.960938 878.214844 571.972656 863.199219 580.652344 L 846.539062 590.269531 L 846.539062 528.617188 L 877.347656 475.21875 L 886.964844 491.886719 C 895.636719 506.929688 897.945312 524.4375 893.453125 541.199219 Z M 893.453125 541.199219" style="stroke:none;fill-rule:nonzero;fill:rgb(10.196078%,10.196078%,10.196078%);fill-opacity:1;"/>
</g>
<g clip-rule="nonzero" clip-path="url(#clip2)">
<path d="M 592.832031 480.269531 L 788.796875 480.269531 C 789.902344 480.269531 790.796875 481.105469 790.796875 482.136719 C 790.796875 483.171875 789.902344 484.007812 788.796875 484.007812 L 592.832031 484.007812 C 591.726562 484.007812 590.832031 483.171875 590.832031 482.136719 C 590.832031 481.105469 591.726562 480.269531 592.832031 480.269531 Z M 592.832031 480.269531" style="stroke:none;fill-rule:nonzero;fill:rgb(10.196078%,10.196078%,10.196078%);fill-opacity:1;"/>
</g>
<g clip-rule="nonzero" clip-path="url(#clip3)">
<path d="M 607.605469 441.769531 L 607.273438 441.660156 L 605.179688 440.613281 C 603.597656 439.988281 602.238281 439.675781 601.097656 439.675781 C 599.445312 439.75 598.617188 440.539062 598.617188 442.046875 C 598.617188 442.636719 598.941406 443.113281 599.589844 443.480469 C 600.226562 443.847656 600.75 444.136719 601.152344 444.34375 C 601.558594 444.539062 602.144531 444.824219 602.917969 445.191406 C 605.675781 446.367188 607.726562 447.671875 609.070312 449.109375 C 610.410156 450.542969 611.078125 451.957031 611.078125 453.355469 C 611.078125 456.40625 610.269531 458.859375 608.652344 460.714844 C 607.035156 462.574219 604.839844 463.503906 602.070312 463.503906 C 599.289062 463.503906 597.109375 463.136719 595.53125 462.402344 C 593.949219 461.667969 592.625 460.617188 591.5625 459.257812 C 591.414062 459.183594 591.339844 459.074219 591.339844 458.925781 C 591.339844 458.78125 591.371094 458.59375 591.429688 458.375 C 591.480469 458.152344 591.910156 457.554688 592.71875 456.578125 C 593.527344 455.605469 594.171875 455.121094 594.648438 455.121094 C 594.796875 455.121094 594.941406 455.195312 595.089844 455.339844 C 597.039062 456.886719 598.929688 457.65625 600.769531 457.65625 C 601.796875 457.65625 602.570312 457.363281 603.082031 456.773438 C 603.597656 456.1875 603.855469 455.542969 603.855469 454.84375 C 603.855469 454.144531 603.5625 453.574219 602.972656 453.132812 C 602.386719 452.691406 601.660156 452.257812 600.800781 451.832031 C 599.933594 451.414062 599.464844 451.183594 599.390625 451.148438 C 599.316406 451.113281 599.214844 451.058594 599.089844 450.984375 C 598.960938 450.910156 598.839844 450.855469 598.726562 450.816406 C 596.851562 449.898438 595.265625 448.746094 593.964844 447.363281 C 592.65625 445.988281 592 444.457031 592 442.765625 C 592 439.820312 592.765625 437.6875 594.296875 436.367188 C 595.816406 435.042969 598.230469 434.378906 601.539062 434.378906 C 602.789062 434.378906 603.984375 434.527344 605.125 434.820312 C 606.667969 435.226562 607.769531 435.703125 608.429688 436.253906 L 608.484375 436.253906 C 608.78125 436.4375 608.957031 436.660156 609.015625 436.917969 C 609.066406 437.175781 609.039062 437.726562 608.925781 438.570312 C 608.558594 440.703125 608.117188 441.769531 607.605469 441.769531 Z M 633.074219 436.253906 L 633.128906 436.253906 C 633.386719 436.402344 633.515625 436.742188 633.515625 437.269531 C 633.515625 437.808594 633.386719 438.515625 633.128906 439.398438 C 632.652344 441.015625 632.136719 441.699219 631.585938 441.441406 L 631.53125 441.441406 L 629.601562 440.667969 C 628.535156 440.191406 627.238281 439.949219 625.710938 439.949219 C 624.1875 439.949219 623.214844 440.574219 622.789062 441.828125 C 622.367188 443.078125 622.160156 445.484375 622.160156 449.050781 C 622.160156 452.621094 622.421875 455.015625 622.953125 456.246094 C 623.488281 457.480469 624.511719 458.097656 626.019531 458.097656 C 628.1875 458.097656 629.878906 457.96875 631.089844 457.714844 C 632.304688 457.457031 632.929688 457.328125 632.964844 457.328125 C 633.222656 457.253906 633.433594 457.398438 633.59375 457.769531 C 633.761719 458.136719 633.847656 459 633.847656 460.359375 C 633.847656 461.722656 633.554688 462.476562 632.964844 462.621094 C 630.6875 463.210938 628.445312 463.503906 626.238281 463.503906 C 621.792969 463.503906 618.75 462.445312 617.109375 460.328125 C 615.476562 458.214844 614.660156 454.386719 614.660156 448.832031 C 614.660156 444.824219 615.015625 441.796875 615.730469 439.753906 C 616.449219 437.714844 617.601562 436.308594 619.183594 435.539062 C 620.761719 434.765625 623.058594 434.378906 626.074219 434.378906 C 629.085938 434.378906 631.421875 435.003906 633.074219 436.253906 Z M 643.164062 435.371094 L 644.265625 437.46875 C 647.28125 435.410156 649.273438 434.378906 650.242188 434.378906 C 651.222656 434.378906 652.101562 434.5625 652.890625 434.929688 C 653.683594 435.300781 654.265625 435.667969 654.632812 436.035156 L 655.128906 436.53125 C 654.578125 438.882812 654.148438 440.355469 653.847656 440.945312 C 653.5625 441.53125 653.167969 441.828125 652.667969 441.828125 C 652.167969 441.828125 651.535156 441.625 650.773438 441.21875 C 650 440.816406 649.300781 440.613281 648.675781 440.613281 C 648.050781 440.613281 646.804688 441.183594 644.929688 442.324219 L 644.929688 462.621094 C 644.929688 462.84375 644.890625 462.988281 644.816406 463.0625 C 644.671875 463.359375 643.992188 463.503906 642.777344 463.503906 C 641.566406 463.503906 640.433594 463.414062 639.382812 463.230469 C 638.339844 463.046875 637.816406 462.84375 637.816406 462.621094 L 637.816406 435.261719 C 637.816406 434.675781 638.644531 434.378906 640.296875 434.378906 C 641.953125 434.378906 642.90625 434.675781 643.164062 435.261719 Z M 670.828125 462.621094 L 669.949219 460.914062 C 668.035156 462.640625 666.339844 463.503906 664.851562 463.503906 C 663.359375 463.503906 662.15625 463.40625 661.238281 463.207031 C 660.316406 463 659.492188 462.554688 658.753906 461.871094 C 658.019531 461.195312 657.507812 460.214844 657.210938 458.925781 C 656.917969 457.640625 656.769531 455.929688 656.769531 453.796875 C 656.769531 450.816406 658.222656 448.777344 661.125 447.671875 L 669.011719 445.632812 C 668.972656 443.242188 668.734375 441.699219 668.292969 441 C 667.851562 440.300781 666.898438 439.949219 665.425781 439.949219 C 663.957031 439.949219 662.6875 440.191406 661.621094 440.667969 L 659.691406 441.441406 L 659.636719 441.441406 C 659.308594 441.625 659.011719 441.476562 658.753906 441 C 658.09375 439.601562 657.761719 438.503906 657.761719 437.710938 C 657.761719 436.925781 657.828125 436.484375 657.960938 436.386719 C 658.085938 436.300781 658.148438 436.238281 658.148438 436.199219 C 659.988281 434.988281 662.367188 434.378906 665.292969 434.378906 C 668.210938 434.378906 670.460938 434.765625 672.042969 435.539062 C 673.621094 436.308594 674.773438 437.714844 675.492188 439.753906 C 676.207031 441.796875 676.5625 444.824219 676.5625 448.832031 L 676.453125 462.621094 C 676.453125 462.84375 676.417969 462.988281 676.34375 463.0625 C 676.195312 463.359375 675.496094 463.503906 674.246094 463.503906 C 671.96875 463.503906 670.828125 463.210938 670.828125 462.621094 Z M 662.890625 453.90625 C 662.890625 456.554688 663.664062 457.953125 665.207031 458.097656 C 666.273438 458.097656 667.042969 457.914062 667.523438 457.546875 C 668.550781 456.847656 669.066406 454.238281 669.066406 449.714844 C 667.152344 449.972656 665.648438 450.496094 664.542969 451.28125 C 663.441406 452.074219 662.890625 452.949219 662.890625 453.90625 Z M 694.921875 434.378906 C 697.640625 434.378906 699.636719 435.488281 700.910156 437.710938 C 702.175781 439.941406 702.804688 443.8125 702.804688 449.328125 C 702.804688 454.84375 702.007812 458.585938 700.414062 460.546875 C 698.8125 462.519531 695.785156 463.503906 691.339844 463.503906 L 688.691406 463.503906 L 688.691406 474.976562 C 688.691406 475.199219 688.675781 475.347656 688.636719 475.417969 C 688.453125 475.714844 687.753906 475.859375 686.542969 475.859375 C 685.328125 475.859375 684.152344 475.769531 683.015625 475.585938 C 681.875 475.402344 681.304688 475.199219 681.304688 474.976562 L 681.304688 435.261719 C 681.304688 434.675781 682.167969 434.378906 683.894531 434.378906 C 685.625 434.378906 686.652344 434.710938 686.984375 435.371094 L 688.03125 437.46875 C 691.117188 435.410156 693.414062 434.378906 694.921875 434.378906 Z M 691.339844 458.210938 C 692.699219 458.210938 693.628906 457.648438 694.128906 456.519531 C 694.621094 455.402344 694.867188 453.507812 694.867188 450.839844 C 694.867188 448.175781 694.859375 446.421875 694.84375 445.578125 C 694.824219 444.730469 694.792969 443.757812 694.757812 442.652344 C 694.683594 440.667969 694.425781 439.675781 693.984375 439.675781 C 692.660156 439.675781 690.898438 440.335938 688.691406 441.660156 L 688.691406 458.210938 Z M 716.3125 463.503906 C 712.378906 463.503906 709.648438 462.4375 708.121094 460.304688 C 706.597656 458.171875 705.839844 454.347656 705.839844 448.832031 C 705.839844 444.859375 706.1875 441.832031 706.886719 439.753906 C 707.585938 437.679688 708.640625 436.261719 710.050781 435.503906 C 711.46875 434.753906 713.558594 434.378906 716.3125 434.378906 C 719.070312 434.378906 721.152344 434.765625 722.566406 435.539062 C 723.984375 436.308594 725.023438 437.746094 725.6875 439.839844 C 726.347656 441.9375 726.679688 444.914062 726.679688 448.777344 C 726.679688 448.996094 726.679688 449.21875 726.679688 449.4375 C 726.679688 449.660156 726.246094 449.863281 725.378906 450.046875 C 724.515625 450.230469 723.480469 450.320312 722.269531 450.320312 L 713.777344 450.320312 C 713.851562 454.625 714.164062 457.070312 714.714844 457.65625 C 715.046875 457.953125 715.578125 458.097656 716.3125 458.097656 C 721.128906 458.097656 724.417969 457.859375 726.183594 457.382812 C 726.253906 457.34375 726.3125 457.328125 726.347656 457.328125 C 726.605469 457.253906 726.8125 457.398438 726.976562 457.769531 C 727.144531 458.136719 727.230469 459 727.230469 460.359375 C 727.230469 461.722656 726.9375 462.476562 726.347656 462.621094 C 724.839844 463.210938 721.496094 463.503906 716.3125 463.503906 Z M 713.777344 441.605469 L 713.777344 445.910156 L 719.347656 445.910156 C 719.199219 441.640625 718.777344 439.507812 718.078125 439.507812 C 716.828125 439.507812 715.800781 439.695312 714.992188 440.0625 C 714.183594 440.429688 713.777344 440.945312 713.777344 441.605469 Z M 734.726562 463.503906 C 732.082031 463.503906 730.757812 462.179688 730.757812 459.535156 C 730.757812 456.886719 732.082031 455.5625 734.726562 455.5625 C 737.375 455.5625 738.695312 456.886719 738.695312 459.535156 C 738.695312 462.179688 737.375 463.503906 734.726562 463.503906 Z M 756.714844 434.378906 C 759.433594 434.378906 761.429688 435.488281 762.703125 437.710938 C 763.964844 439.941406 764.597656 443.8125 764.597656 449.328125 C 764.597656 454.84375 763.800781 458.585938 762.207031 460.546875 C 760.601562 462.519531 757.578125 463.503906 753.128906 463.503906 L 750.484375 463.503906 L 750.484375 474.976562 C 750.484375 475.199219 750.464844 475.347656 750.429688 475.417969 C 750.246094 475.714844 749.546875 475.859375 748.335938 475.859375 C 747.121094 475.859375 745.945312 475.769531 744.804688 475.585938 C 743.667969 475.402344 743.097656 475.199219 743.097656 474.976562 L 743.097656 435.261719 C 743.097656 434.675781 743.960938 434.378906 745.6875 434.378906 C 747.414062 434.378906 748.445312 434.710938 748.773438 435.371094 L 749.824219 437.46875 C 752.910156 435.410156 755.207031 434.378906 756.714844 434.378906 Z M 753.128906 458.210938 C 754.492188 458.210938 755.421875 457.648438 755.921875 456.519531 C 756.414062 455.402344 756.660156 453.507812 756.660156 450.839844 C 756.660156 448.175781 756.652344 446.421875 756.636719 445.578125 C 756.613281 444.730469 756.585938 443.757812 756.550781 442.652344 C 756.476562 440.667969 756.21875 439.675781 755.777344 439.675781 C 754.453125 439.675781 752.691406 440.335938 750.484375 441.660156 L 750.484375 458.210938 Z M 766.75 435.097656 C 766.75 434.617188 767.421875 434.378906 768.765625 434.378906 C 770.105469 434.378906 771.355469 434.472656 772.515625 434.65625 C 773.667969 434.839844 774.265625 435.042969 774.300781 435.261719 L 779.207031 454.128906 L 783.507812 435.261719 C 783.65625 434.675781 784.242188 434.378906 785.273438 434.378906 C 787.292969 434.378906 788.636719 434.488281 789.296875 434.710938 C 789.957031 434.929688 790.289062 435.097656 790.289062 435.207031 L 779.261719 474.976562 C 779.117188 475.566406 778.527344 475.859375 777.5 475.859375 C 776.46875 475.859375 775.625 475.824219 774.964844 475.75 C 773.53125 475.566406 772.851562 475.308594 772.921875 474.976562 C 772.921875 474.867188 772.941406 474.777344 772.976562 474.703125 L 775.789062 462.621094 L 766.804688 435.371094 L 766.804688 435.261719 C 766.765625 435.1875 766.75 435.132812 766.75 435.097656 Z M 766.75 435.097656" style="stroke:none;fill-rule:nonzero;fill:rgb(10.196078%,10.196078%,10.196078%);fill-opacity:1;"/>
</g>
<g clip-rule="nonzero" clip-path="url(#clip4)">
<path d="M 629.742188 499.445312 C 629.636719 499.363281 629.539062 499.265625 629.445312 499.15625 C 629.351562 499.046875 629.324219 498.875 629.359375 498.644531 C 629.390625 498.316406 629.4375 498.027344 629.496094 497.777344 C 629.554688 497.527344 629.625 497.242188 629.707031 496.914062 C 629.730469 496.777344 629.792969 496.539062 629.890625 496.199219 C 629.988281 495.863281 630.113281 495.496094 630.265625 495.101562 C 630.414062 494.707031 630.566406 494.328125 630.71875 493.972656 C 630.867188 493.621094 631.003906 493.355469 631.117188 493.183594 C 631.234375 493.078125 631.402344 493.027344 631.617188 493.03125 C 631.832031 493.039062 631.984375 493.089844 632.078125 493.183594 C 632.207031 493.285156 632.238281 493.46875 632.175781 493.730469 C 632.109375 493.992188 631.945312 494.398438 631.675781 494.945312 C 631.582031 495.140625 631.496094 495.320312 631.414062 495.472656 C 631.332031 495.632812 631.285156 495.75 631.269531 495.824219 C 631.25 495.898438 631.277344 495.925781 631.34375 495.902344 C 631.414062 495.777344 631.542969 495.625 631.730469 495.457031 C 631.914062 495.289062 632.113281 495.125 632.320312 494.960938 C 632.53125 494.796875 632.730469 494.652344 632.914062 494.523438 C 633.101562 494.398438 633.230469 494.316406 633.296875 494.28125 C 633.390625 494.222656 633.5 494.171875 633.621094 494.132812 C 633.742188 494.089844 633.828125 494.058594 633.875 494.035156 C 634.140625 493.910156 634.429688 493.859375 634.738281 493.886719 C 635.046875 493.917969 635.234375 494.019531 635.304688 494.195312 C 635.316406 494.285156 635.355469 494.355469 635.417969 494.402344 C 635.480469 494.449219 635.511719 494.472656 635.511719 494.472656 C 635.558594 494.472656 635.585938 494.492188 635.59375 494.523438 C 635.597656 494.558594 635.601562 494.578125 635.601562 494.578125 C 635.601562 494.660156 635.527344 494.753906 635.382812 494.863281 C 635.238281 494.976562 635.070312 495.035156 634.886719 495.046875 C 634.734375 495.058594 634.601562 495.089844 634.484375 495.136719 C 634.367188 495.183594 634.230469 495.242188 634.066406 495.308594 C 633.625 495.566406 633.21875 495.800781 632.84375 496.007812 C 632.472656 496.21875 632.101562 496.527344 631.730469 496.933594 C 631.648438 497.027344 631.5625 497.121094 631.476562 497.21875 C 631.390625 497.320312 631.300781 497.445312 631.207031 497.597656 C 631.148438 497.652344 631.089844 497.78125 631.03125 497.980469 C 630.972656 498.175781 630.921875 498.367188 630.882812 498.546875 C 630.84375 498.726562 630.824219 498.835938 630.824219 498.871094 C 630.824219 498.871094 630.804688 498.925781 630.769531 499.035156 C 630.734375 499.144531 630.675781 499.253906 630.597656 499.359375 C 630.457031 499.542969 630.324219 499.652344 630.207031 499.679688 C 630.082031 499.710938 629.925781 499.632812 629.742188 499.445312 Z M 638.949219 499.53125 C 638.632812 499.730469 638.292969 499.847656 637.925781 499.882812 C 637.5625 499.917969 637.214844 499.867188 636.890625 499.730469 C 636.566406 499.597656 636.304688 499.394531 636.105469 499.113281 C 635.953125 498.929688 635.835938 498.667969 635.746094 498.339844 C 635.660156 498.007812 635.648438 497.5625 635.703125 497.003906 C 635.761719 496.503906 635.921875 495.992188 636.183594 495.472656 C 636.445312 494.957031 636.765625 494.5 637.140625 494.097656 C 637.519531 493.695312 637.917969 493.421875 638.339844 493.269531 C 638.511719 493.199219 638.675781 493.15625 638.828125 493.136719 C 638.976562 493.121094 639.1875 493.125 639.453125 493.148438 C 639.722656 493.183594 639.949219 493.242188 640.132812 493.328125 C 640.320312 493.417969 640.460938 493.519531 640.550781 493.636719 C 640.726562 493.820312 640.84375 494 640.902344 494.164062 C 640.960938 494.335938 640.988281 494.503906 640.988281 494.664062 C 640.929688 495.003906 640.761719 495.375 640.484375 495.78125 C 640.203125 496.1875 639.820312 496.503906 639.332031 496.722656 C 639.109375 496.804688 638.859375 496.851562 638.582031 496.863281 C 638.304688 496.875 637.976562 496.828125 637.605469 496.722656 C 637.351562 496.652344 637.179688 496.675781 637.101562 496.792969 C 637.019531 496.910156 636.972656 497.160156 636.960938 497.542969 C 636.960938 497.824219 637.003906 498.050781 637.089844 498.222656 C 637.179688 498.398438 637.328125 498.507812 637.535156 498.554688 C 637.792969 498.601562 637.980469 498.617188 638.101562 498.597656 C 638.222656 498.582031 638.371094 498.527344 638.546875 498.433594 C 638.675781 498.351562 638.777344 498.285156 638.851562 498.230469 C 638.925781 498.179688 638.996094 498.125 639.058594 498.066406 C 639.125 498.007812 639.199219 497.949219 639.28125 497.890625 C 639.347656 497.835938 639.410156 497.792969 639.460938 497.769531 C 639.515625 497.746094 639.570312 497.734375 639.628906 497.734375 C 639.734375 497.746094 639.832031 497.804688 639.925781 497.910156 C 640.019531 498.015625 640.082031 498.109375 640.117188 498.1875 C 640.164062 498.246094 640.136719 498.359375 640.035156 498.519531 C 639.9375 498.683594 639.792969 498.855469 639.601562 499.035156 C 639.410156 499.214844 639.191406 499.382812 638.949219 499.53125 Z M 638.792969 495.710938 C 638.894531 495.664062 639.023438 495.582031 639.175781 495.457031 C 639.324219 495.335938 639.460938 495.207031 639.574219 495.066406 C 639.691406 494.925781 639.75 494.808594 639.75 494.71875 C 639.75 494.578125 639.667969 494.460938 639.507812 494.359375 C 639.34375 494.261719 639.121094 494.246094 638.84375 494.316406 C 638.738281 494.339844 638.617188 494.410156 638.476562 494.523438 C 638.339844 494.640625 638.199219 494.773438 638.066406 494.917969 C 637.933594 495.0625 637.820312 495.195312 637.726562 495.316406 C 637.632812 495.441406 637.582031 495.53125 637.570312 495.589844 C 637.617188 495.648438 637.710938 495.691406 637.855469 495.71875 C 638.003906 495.75 638.164062 495.765625 638.34375 495.765625 C 638.527344 495.765625 638.675781 495.746094 638.792969 495.710938 Z M 642.296875 500.089844 C 642.074219 500.148438 641.882812 500.09375 641.722656 499.921875 C 641.554688 499.757812 641.449219 499.503906 641.398438 499.167969 C 641.34375 498.828125 641.367188 498.445312 641.460938 498.015625 C 641.515625 497.875 641.5625 497.738281 641.597656 497.601562 C 641.632812 497.46875 641.648438 497.363281 641.648438 497.28125 C 641.671875 497.164062 641.722656 496.992188 641.789062 496.765625 C 641.859375 496.539062 641.9375 496.304688 642.015625 496.0625 C 642.097656 495.816406 642.175781 495.597656 642.25 495.40625 C 642.328125 495.214844 642.378906 495.09375 642.402344 495.046875 C 642.449219 495.046875 642.488281 495.007812 642.519531 494.925781 C 642.558594 494.84375 642.574219 494.765625 642.574219 494.683594 C 642.574219 494.589844 642.59375 494.484375 642.632812 494.367188 C 642.675781 494.253906 642.71875 494.171875 642.765625 494.125 C 642.765625 494.066406 642.78125 494 642.808594 493.925781 C 642.839844 493.847656 642.855469 493.785156 642.855469 493.738281 C 642.855469 493.695312 642.867188 493.648438 642.894531 493.601562 C 642.925781 493.554688 642.941406 493.507812 642.941406 493.460938 C 643.023438 493.308594 643.128906 493.066406 643.261719 492.734375 C 643.398438 492.40625 643.542969 492.035156 643.699219 491.628906 C 643.855469 491.222656 644.003906 490.820312 644.144531 490.425781 C 644.28125 490.03125 644.394531 489.695312 644.484375 489.421875 C 644.570312 489.148438 644.613281 488.984375 644.613281 488.925781 C 644.613281 488.832031 644.644531 488.75 644.710938 488.679688 C 644.773438 488.609375 644.855469 488.574219 644.945312 488.574219 C 644.980469 488.539062 645.046875 488.515625 645.144531 488.496094 C 645.246094 488.480469 645.320312 488.472656 645.367188 488.472656 C 645.367188 488.472656 645.386719 488.496094 645.433594 488.539062 C 645.480469 488.585938 645.550781 488.65625 645.644531 488.75 C 645.738281 488.832031 645.816406 488.925781 645.878906 489.03125 C 645.941406 489.132812 645.976562 489.257812 645.976562 489.394531 C 645.976562 489.546875 645.957031 489.6875 645.917969 489.820312 C 645.886719 489.957031 645.820312 490.140625 645.714844 490.371094 C 645.609375 490.605469 645.445312 490.953125 645.222656 491.417969 C 645.132812 491.652344 645.035156 491.871094 644.929688 492.074219 C 644.824219 492.277344 644.773438 492.402344 644.773438 492.449219 C 644.773438 492.496094 644.75 492.566406 644.710938 492.660156 C 644.671875 492.75 644.628906 492.867188 644.582031 493.007812 C 644.535156 493.101562 644.46875 493.238281 644.390625 493.414062 C 644.304688 493.597656 644.21875 493.789062 644.132812 493.992188 C 644.046875 494.195312 643.972656 494.371094 643.914062 494.515625 C 643.855469 494.660156 643.828125 494.746094 643.828125 494.769531 C 643.828125 494.816406 643.824219 494.863281 643.820312 494.910156 C 643.816406 494.957031 643.789062 495.003906 643.738281 495.046875 C 643.695312 495.046875 643.671875 495.082031 643.664062 495.144531 C 643.65625 495.207031 643.652344 495.242188 643.652344 495.242188 C 643.652344 495.355469 643.5625 495.664062 643.378906 496.164062 C 643.191406 496.804688 643.019531 497.390625 642.863281 497.925781 C 642.707031 498.460938 642.628906 498.894531 642.628906 499.21875 C 642.628906 499.496094 642.59375 499.703125 642.53125 499.828125 C 642.464844 499.957031 642.386719 500.042969 642.296875 500.089844 Z M 644.785156 499.585938 C 644.695312 499.492188 644.628906 499.359375 644.585938 499.191406 C 644.546875 499.023438 644.53125 498.855469 644.542969 498.683594 C 644.554688 498.515625 644.582031 498.386719 644.628906 498.292969 C 644.628906 498.199219 644.644531 498.128906 644.675781 498.074219 C 644.703125 498.023438 644.710938 497.972656 644.699219 497.925781 C 644.6875 497.882812 644.699219 497.800781 644.734375 497.683594 C 644.769531 497.566406 644.804688 497.457031 644.839844 497.351562 C 644.921875 497.164062 645.011719 496.929688 645.109375 496.644531 C 645.207031 496.359375 645.308594 496.074219 645.40625 495.78125 C 645.503906 495.492188 645.585938 495.238281 645.652344 495.019531 C 645.714844 494.808594 645.75 494.675781 645.761719 494.628906 C 645.761719 494.492188 645.855469 494.414062 646.042969 494.402344 C 646.179688 494.355469 646.332031 494.394531 646.488281 494.515625 C 646.644531 494.636719 646.78125 494.792969 646.894531 494.980469 C 646.988281 495.070312 647.023438 495.199219 647 495.363281 C 646.976562 495.527344 646.902344 495.746094 646.773438 496.027344 C 646.726562 496.117188 646.671875 496.265625 646.609375 496.46875 C 646.546875 496.671875 646.5 496.847656 646.476562 496.984375 C 646.429688 497.078125 646.375 497.207031 646.3125 497.375 C 646.25 497.546875 646.191406 497.707031 646.148438 497.859375 C 646.125 497.914062 646.101562 498.015625 646.078125 498.152344 C 646.054688 498.292969 646.023438 498.4375 645.988281 498.589844 C 645.953125 498.742188 645.910156 498.863281 645.851562 498.957031 C 645.746094 499.433594 645.59375 499.710938 645.390625 499.792969 C 645.183594 499.875 644.984375 499.804688 644.785156 499.585938 Z M 646.601562 492.554688 C 646.496094 492.472656 646.414062 492.371094 646.355469 492.246094 C 646.296875 492.125 646.265625 492.011719 646.261719 491.910156 C 646.253906 491.804688 646.261719 491.746094 646.285156 491.734375 C 646.390625 491.640625 646.496094 491.492188 646.601562 491.289062 C 646.703125 491.085938 646.785156 490.902344 646.84375 490.738281 C 646.855469 490.703125 646.882812 490.65625 646.925781 490.601562 C 646.964844 490.542969 647.007812 490.507812 647.054688 490.496094 C 647.191406 490.402344 647.367188 490.402344 647.578125 490.496094 C 647.785156 490.589844 647.949219 490.726562 648.066406 490.914062 C 648.167969 491.136719 648.203125 491.347656 648.164062 491.550781 C 648.121094 491.753906 647.996094 491.984375 647.785156 492.238281 C 647.613281 492.472656 647.410156 492.613281 647.1875 492.664062 C 646.957031 492.71875 646.761719 492.683594 646.601562 492.554688 Z M 648.359375 499.515625 C 648.316406 499.421875 648.226562 499.335938 648.101562 499.253906 C 647.972656 499.171875 647.90625 499.109375 647.90625 499.0625 C 647.90625 499.015625 647.890625 498.949219 647.855469 498.871094 C 647.820312 498.789062 647.78125 498.722656 647.734375 498.675781 C 647.675781 498.609375 647.691406 498.4375 647.777344 498.171875 C 647.863281 497.902344 647.996094 497.578125 648.167969 497.195312 C 648.34375 496.8125 648.542969 496.414062 648.761719 496.007812 C 648.855469 495.914062 648.949219 495.792969 649.042969 495.640625 C 649.132812 495.492188 649.203125 495.390625 649.25 495.34375 C 649.25 495.296875 649.269531 495.253906 649.304688 495.210938 C 649.335938 495.171875 649.378906 495.152344 649.425781 495.152344 L 649.53125 494.925781 C 649.542969 494.878906 649.605469 494.785156 649.722656 494.648438 C 649.835938 494.507812 649.984375 494.355469 650.15625 494.1875 C 650.332031 494.015625 650.507812 493.855469 650.679688 493.707031 C 650.855469 493.554688 651 493.445312 651.117188 493.375 C 651.359375 493.210938 651.613281 493.125 651.875 493.117188 C 652.136719 493.113281 652.359375 493.1875 652.546875 493.339844 C 652.582031 493.375 652.65625 493.441406 652.765625 493.539062 C 652.875 493.636719 653 493.746094 653.140625 493.863281 C 653.277344 493.980469 653.40625 494.089844 653.523438 494.195312 L 654.167969 494.769531 L 653.871094 495.640625 C 653.71875 496.105469 653.683594 496.515625 653.757812 496.863281 C 653.832031 497.210938 653.941406 497.515625 654.082031 497.769531 C 654.140625 497.898438 654.230469 498.003906 654.359375 498.089844 C 654.488281 498.179688 654.632812 498.234375 654.796875 498.257812 C 654.886719 498.269531 654.976562 498.304688 655.058594 498.363281 C 655.136719 498.421875 655.179688 498.515625 655.179688 498.644531 C 655.179688 498.863281 655.136719 499.027344 655.058594 499.132812 C 654.976562 499.234375 654.878906 499.300781 654.761719 499.324219 C 654.378906 499.371094 654.011719 499.3125 653.667969 499.148438 C 653.328125 498.984375 653.015625 498.636719 652.738281 498.101562 C 652.691406 498.03125 652.632812 497.902344 652.558594 497.707031 C 652.480469 497.515625 652.4375 497.390625 652.425781 497.335938 C 652.378906 497.390625 652.308594 497.476562 652.214844 497.585938 C 652.121094 497.695312 652.039062 497.789062 651.972656 497.859375 C 651.144531 498.695312 650.4375 499.242188 649.84375 499.503906 C 649.25 499.765625 648.757812 499.769531 648.359375 499.515625 Z M 649.214844 498.222656 C 649.273438 498.257812 649.402344 498.230469 649.597656 498.136719 C 649.796875 498.042969 650.039062 497.882812 650.332031 497.648438 C 650.726562 497.3125 651.074219 497 651.378906 496.714844 C 651.679688 496.429688 651.953125 496.113281 652.199219 495.765625 L 652.582031 495.136719 C 652.464844 494.867188 652.355469 494.691406 652.25 494.601562 C 652.144531 494.515625 652.046875 494.472656 651.953125 494.472656 C 651.800781 494.472656 651.609375 494.582031 651.371094 494.804688 C 651.132812 495.027344 650.871094 495.335938 650.585938 495.734375 C 650.300781 496.136719 649.996094 496.613281 649.667969 497.160156 C 649.53125 497.402344 649.417969 497.640625 649.335938 497.875 C 649.257812 498.109375 649.214844 498.222656 649.214844 498.222656 Z M 657.917969 499.792969 C 657.683594 499.769531 657.515625 499.722656 657.410156 499.644531 C 657.308594 499.570312 657.21875 499.457031 657.148438 499.304688 C 657.058594 499.199219 657 499.121094 656.980469 499.0625 C 656.964844 499.003906 656.964844 498.949219 656.976562 498.90625 C 657.035156 498.90625 657.085938 498.902344 657.132812 498.894531 C 657.179688 498.890625 657.207031 498.871094 657.21875 498.835938 C 657.21875 498.800781 657.238281 498.777344 657.277344 498.765625 C 657.320312 498.753906 657.363281 498.753906 657.410156 498.765625 C 657.632812 498.777344 657.90625 498.699219 658.230469 498.539062 C 658.554688 498.375 658.914062 498.148438 659.300781 497.859375 C 659.691406 497.566406 660.078125 497.246094 660.460938 496.898438 C 660.765625 496.503906 660.980469 496.207031 661.109375 496.007812 C 661.234375 495.8125 661.304688 495.652344 661.316406 495.539062 C 661.328125 495.421875 661.304688 495.308594 661.246094 495.207031 C 661.199219 495.113281 661.070312 495.070312 660.851562 495.074219 C 660.640625 495.082031 660.351562 495.199219 659.992188 495.433594 C 659.492188 495.746094 659.089844 496.039062 658.789062 496.304688 C 658.488281 496.574219 658.207031 496.875 657.953125 497.210938 C 657.859375 497.328125 657.761719 497.457031 657.664062 497.601562 C 657.566406 497.75 657.480469 497.871094 657.410156 497.96875 C 657.339844 498.070312 657.308594 498.121094 657.308594 498.121094 C 657.308594 498.164062 657.238281 498.222656 657.105469 498.292969 C 656.972656 498.363281 656.859375 498.398438 656.765625 498.398438 C 656.71875 498.375 656.65625 498.332031 656.582031 498.265625 C 656.507812 498.203125 656.457031 498.121094 656.433594 498.015625 C 656.332031 497.945312 656.25 497.882812 656.191406 497.824219 C 656.132812 497.765625 656.101562 497.675781 656.101562 497.5625 C 656.101562 497.480469 656.121094 497.367188 656.15625 497.21875 C 656.191406 497.074219 656.238281 496.875 656.296875 496.617188 C 656.363281 496.316406 656.441406 496.003906 656.527344 495.675781 C 656.617188 495.351562 656.699219 495.070312 656.773438 494.828125 C 656.851562 494.589844 656.90625 494.460938 656.941406 494.4375 C 656.941406 494.4375 656.964844 494.386719 657.011719 494.28125 C 657.058594 494.175781 657.078125 494.054688 657.078125 493.914062 C 657.101562 493.773438 657.140625 493.652344 657.191406 493.546875 C 657.246094 493.445312 657.273438 493.367188 657.273438 493.320312 C 657.316406 493.285156 657.386719 493.148438 657.480469 492.902344 C 657.574219 492.660156 657.691406 492.339844 657.828125 491.941406 C 657.828125 491.910156 657.871094 491.792969 657.953125 491.601562 C 658.035156 491.410156 658.132812 491.183594 658.25 490.921875 C 658.363281 490.660156 658.484375 490.386719 658.605469 490.101562 C 658.726562 489.816406 658.828125 489.566406 658.910156 489.34375 C 659.050781 489.144531 659.167969 488.949219 659.257812 488.757812 C 659.351562 488.566406 659.441406 488.453125 659.519531 488.417969 C 659.578125 488.40625 659.667969 488.425781 659.789062 488.472656 C 659.914062 488.519531 660.039062 488.578125 660.171875 488.652344 C 660.308594 488.730469 660.40625 488.8125 660.460938 488.90625 C 660.496094 488.964844 660.515625 489.019531 660.523438 489.070312 C 660.527344 489.125 660.507812 489.21875 660.453125 489.351562 C 660.402344 489.484375 660.304688 489.699219 660.167969 489.988281 C 660.027344 490.28125 659.828125 490.691406 659.574219 491.226562 C 659.25 491.925781 658.988281 492.519531 658.796875 493.015625 C 658.605469 493.511719 658.453125 493.9375 658.335938 494.296875 C 658.21875 494.660156 658.101562 494.992188 657.988281 495.292969 L 657.898438 495.675781 L 658.335938 495.207031 C 658.476562 495.089844 658.621094 494.964844 658.777344 494.828125 C 658.9375 494.695312 659.089844 494.570312 659.242188 494.457031 C 659.335938 494.386719 659.460938 494.3125 659.617188 494.234375 C 659.773438 494.160156 659.929688 494.09375 660.078125 494.035156 C 660.230469 493.980469 660.339844 493.945312 660.410156 493.933594 C 660.445312 493.921875 660.550781 493.898438 660.730469 493.863281 C 660.914062 493.828125 661.101562 493.808594 661.300781 493.808594 C 661.554688 493.808594 661.773438 493.886719 661.953125 494.042969 C 662.132812 494.203125 662.300781 494.410156 662.449219 494.664062 C 662.578125 494.910156 662.628906 495.207031 662.597656 495.5625 C 662.570312 495.917969 662.472656 496.230469 662.3125 496.496094 C 662.253906 496.542969 662.195312 496.605469 662.136719 496.679688 C 662.078125 496.753906 662.050781 496.816406 662.050781 496.863281 C 662.039062 496.945312 661.933594 497.109375 661.734375 497.359375 C 661.539062 497.609375 661.339844 497.847656 661.144531 498.066406 C 660.933594 498.289062 660.679688 498.503906 660.375 498.71875 C 660.074219 498.9375 659.773438 499.128906 659.476562 499.296875 C 659.179688 499.464844 658.929688 499.585938 658.71875 499.65625 C 658.625 499.667969 658.492188 499.6875 658.316406 499.714844 C 658.144531 499.746094 658.011719 499.769531 657.917969 499.792969 Z M 663.566406 499.585938 C 663.472656 499.492188 663.40625 499.359375 663.363281 499.191406 C 663.324219 499.023438 663.308594 498.855469 663.320312 498.683594 C 663.332031 498.515625 663.363281 498.386719 663.40625 498.292969 C 663.40625 498.199219 663.421875 498.128906 663.453125 498.074219 C 663.480469 498.023438 663.488281 497.972656 663.480469 497.925781 C 663.46875 497.882812 663.480469 497.800781 663.515625 497.683594 C 663.550781 497.566406 663.585938 497.457031 663.617188 497.351562 C 663.699219 497.164062 663.789062 496.929688 663.886719 496.644531 C 663.988281 496.359375 664.085938 496.074219 664.183594 495.78125 C 664.285156 495.492188 664.367188 495.238281 664.429688 495.019531 C 664.492188 494.808594 664.53125 494.675781 664.539062 494.628906 C 664.539062 494.492188 664.632812 494.414062 664.824219 494.402344 C 664.960938 494.355469 665.109375 494.394531 665.265625 494.515625 C 665.421875 494.636719 665.558594 494.792969 665.675781 494.980469 C 665.769531 495.070312 665.804688 495.199219 665.78125 495.363281 C 665.757812 495.527344 665.683594 495.746094 665.554688 496.027344 C 665.507812 496.117188 665.453125 496.265625 665.386719 496.46875 C 665.324219 496.671875 665.28125 496.847656 665.257812 496.984375 C 665.210938 497.078125 665.15625 497.207031 665.089844 497.375 C 665.027344 497.546875 664.972656 497.707031 664.925781 497.859375 C 664.902344 497.914062 664.878906 498.015625 664.855469 498.152344 C 664.832031 498.292969 664.804688 498.4375 664.769531 498.589844 C 664.734375 498.742188 664.683594 498.863281 664.628906 498.957031 C 664.523438 499.433594 664.371094 499.710938 664.167969 499.792969 C 663.964844 499.875 663.765625 499.804688 663.566406 499.585938 Z M 665.378906 492.554688 C 665.277344 492.472656 665.195312 492.371094 665.136719 492.246094 C 665.078125 492.125 665.046875 492.011719 665.039062 491.910156 C 665.035156 491.804688 665.042969 491.746094 665.066406 491.734375 C 665.171875 491.640625 665.277344 491.492188 665.378906 491.289062 C 665.484375 491.085938 665.566406 490.902344 665.625 490.738281 C 665.636719 490.703125 665.660156 490.65625 665.699219 490.601562 C 665.742188 490.542969 665.789062 490.507812 665.832031 490.496094 C 665.972656 490.402344 666.148438 490.402344 666.355469 490.496094 C 666.566406 490.589844 666.730469 490.726562 666.84375 490.914062 C 666.949219 491.136719 666.980469 491.347656 666.9375 491.550781 C 666.898438 491.753906 666.773438 491.984375 666.566406 492.238281 C 666.390625 492.472656 666.191406 492.613281 665.960938 492.664062 C 665.738281 492.71875 665.542969 492.683594 665.378906 492.554688 Z M 667.488281 500.089844 C 667.265625 500.148438 667.074219 500.09375 666.910156 499.921875 C 666.75 499.757812 666.640625 499.503906 666.589844 499.167969 C 666.535156 498.828125 666.558594 498.445312 666.648438 498.015625 C 666.707031 497.875 666.753906 497.738281 666.789062 497.601562 C 666.824219 497.46875 666.839844 497.363281 666.839844 497.28125 C 666.863281 497.164062 666.910156 496.992188 666.980469 496.765625 C 667.050781 496.539062 667.125 496.304688 667.207031 496.0625 C 667.289062 495.816406 667.367188 495.597656 667.445312 495.40625 C 667.519531 495.214844 667.566406 495.09375 667.589844 495.046875 C 667.636719 495.046875 667.679688 495.007812 667.714844 494.925781 C 667.75 494.84375 667.765625 494.765625 667.765625 494.683594 C 667.765625 494.589844 667.785156 494.484375 667.828125 494.367188 C 667.867188 494.253906 667.910156 494.171875 667.957031 494.125 C 667.957031 494.066406 667.972656 494 668.003906 493.925781 C 668.03125 493.847656 668.042969 493.785156 668.042969 493.738281 C 668.042969 493.695312 668.058594 493.648438 668.089844 493.601562 C 668.117188 493.554688 668.132812 493.507812 668.132812 493.460938 C 668.214844 493.308594 668.320312 493.066406 668.457031 492.734375 C 668.589844 492.40625 668.734375 492.035156 668.890625 491.628906 C 669.046875 491.222656 669.195312 490.820312 669.335938 490.425781 C 669.476562 490.03125 669.589844 489.695312 669.675781 489.421875 C 669.761719 489.148438 669.804688 488.984375 669.804688 488.925781 C 669.804688 488.832031 669.839844 488.75 669.902344 488.679688 C 669.964844 488.609375 670.042969 488.574219 670.136719 488.574219 C 670.171875 488.539062 670.238281 488.515625 670.339844 488.496094 C 670.4375 488.480469 670.507812 488.472656 670.554688 488.472656 C 670.554688 488.472656 670.578125 488.496094 670.625 488.539062 C 670.671875 488.585938 670.742188 488.65625 670.835938 488.75 C 670.929688 488.832031 671.007812 488.925781 671.070312 489.03125 C 671.132812 489.132812 671.167969 489.257812 671.167969 489.394531 C 671.167969 489.546875 671.148438 489.6875 671.113281 489.820312 C 671.078125 489.957031 671.007812 490.140625 670.90625 490.371094 C 670.800781 490.605469 670.636719 490.953125 670.417969 491.417969 C 670.324219 491.652344 670.222656 491.871094 670.121094 492.074219 C 670.015625 492.277344 669.964844 492.402344 669.964844 492.449219 C 669.964844 492.496094 669.941406 492.566406 669.902344 492.660156 C 669.863281 492.75 669.816406 492.867188 669.769531 493.007812 C 669.722656 493.101562 669.660156 493.238281 669.578125 493.414062 C 669.496094 493.597656 669.414062 493.789062 669.328125 493.992188 C 669.238281 494.195312 669.167969 494.371094 669.109375 494.515625 C 669.050781 494.660156 669.019531 494.746094 669.019531 494.769531 C 669.019531 494.816406 669.019531 494.863281 669.015625 494.910156 C 669.007812 494.957031 668.980469 495.003906 668.933594 495.046875 C 668.886719 495.046875 668.863281 495.082031 668.855469 495.144531 C 668.851562 495.207031 668.847656 495.242188 668.847656 495.242188 C 668.847656 495.355469 668.753906 495.664062 668.566406 496.164062 C 668.382812 496.804688 668.210938 497.390625 668.054688 497.925781 C 667.898438 498.460938 667.816406 498.894531 667.816406 499.21875 C 667.816406 499.496094 667.785156 499.703125 667.722656 499.828125 C 667.660156 499.957031 667.578125 500.042969 667.488281 500.089844 Z M 669.980469 499.585938 C 669.886719 499.492188 669.820312 499.359375 669.78125 499.191406 C 669.738281 499.023438 669.722656 498.855469 669.734375 498.683594 C 669.746094 498.515625 669.777344 498.386719 669.824219 498.292969 C 669.824219 498.199219 669.839844 498.128906 669.867188 498.074219 C 669.898438 498.023438 669.90625 497.972656 669.894531 497.925781 C 669.882812 497.882812 669.894531 497.800781 669.929688 497.683594 C 669.964844 497.566406 669.996094 497.457031 670.03125 497.351562 C 670.113281 497.164062 670.203125 496.929688 670.304688 496.644531 C 670.402344 496.359375 670.5 496.074219 670.601562 495.78125 C 670.699219 495.492188 670.78125 495.238281 670.84375 495.019531 C 670.90625 494.808594 670.945312 494.675781 670.957031 494.628906 C 670.957031 494.492188 671.050781 494.414062 671.234375 494.402344 C 671.375 494.355469 671.523438 494.394531 671.683594 494.515625 C 671.839844 494.636719 671.972656 494.792969 672.089844 494.980469 C 672.183594 495.070312 672.21875 495.199219 672.195312 495.363281 C 672.171875 495.527344 672.097656 495.746094 671.96875 496.027344 C 671.921875 496.117188 671.867188 496.265625 671.804688 496.46875 C 671.738281 496.671875 671.695312 496.847656 671.671875 496.984375 C 671.625 497.078125 671.570312 497.207031 671.507812 497.375 C 671.441406 497.546875 671.386719 497.707031 671.339844 497.859375 C 671.316406 497.914062 671.292969 498.015625 671.269531 498.152344 C 671.246094 498.292969 671.21875 498.4375 671.183594 498.589844 C 671.148438 498.742188 671.101562 498.863281 671.042969 498.957031 C 670.9375 499.433594 670.785156 499.710938 670.582031 499.792969 C 670.378906 499.875 670.179688 499.804688 669.980469 499.585938 Z M 671.792969 492.554688 C 671.6875 492.472656 671.609375 492.371094 671.550781 492.246094 C 671.492188 492.125 671.460938 492.011719 671.457031 491.910156 C 671.449219 491.804688 671.457031 491.746094 671.480469 491.734375 C 671.585938 491.640625 671.6875 491.492188 671.792969 491.289062 C 671.898438 491.085938 671.980469 490.902344 672.039062 490.738281 C 672.050781 490.703125 672.078125 490.65625 672.117188 490.601562 C 672.15625 490.542969 672.199219 490.507812 672.246094 490.496094 C 672.386719 490.402344 672.5625 490.402344 672.769531 490.496094 C 672.980469 490.589844 673.140625 490.726562 673.257812 490.914062 C 673.363281 491.136719 673.394531 491.347656 673.355469 491.550781 C 673.3125 491.753906 673.1875 491.984375 672.980469 492.238281 C 672.804688 492.472656 672.605469 492.613281 672.378906 492.664062 C 672.152344 492.71875 671.957031 492.683594 671.792969 492.554688 Z M 674.53125 499.933594 C 674.402344 499.910156 674.265625 499.835938 674.121094 499.714844 C 673.976562 499.59375 673.84375 499.449219 673.730469 499.289062 C 673.613281 499.125 673.539062 498.984375 673.503906 498.871094 C 673.503906 498.847656 673.488281 498.816406 673.457031 498.78125 C 673.429688 498.746094 673.414062 498.730469 673.414062 498.730469 C 673.367188 498.695312 673.34375 498.539062 673.335938 498.265625 C 673.332031 497.992188 673.347656 497.6875 673.378906 497.351562 C 673.414062 497.015625 673.457031 496.746094 673.503906 496.550781 C 673.5625 496.363281 673.648438 496.109375 673.765625 495.789062 C 673.878906 495.46875 673.980469 495.183594 674.0625 494.925781 L 674.53125 493.914062 L 673.835938 493.722656 C 673.753906 493.699219 673.683594 493.652344 673.632812 493.582031 C 673.582031 493.511719 673.554688 493.457031 673.554688 493.410156 C 673.554688 493.316406 673.605469 493.1875 673.710938 493.023438 C 673.816406 492.863281 673.890625 492.78125 673.9375 492.78125 C 673.996094 492.792969 674.105469 492.796875 674.257812 492.796875 C 674.417969 492.796875 674.570312 492.792969 674.722656 492.78125 C 674.875 492.769531 674.96875 492.757812 675.003906 492.746094 C 675.050781 492.722656 675.09375 492.691406 675.140625 492.648438 C 675.1875 492.609375 675.222656 492.546875 675.246094 492.464844 C 675.304688 492.339844 675.355469 492.234375 675.402344 492.152344 C 675.449219 492.070312 675.515625 491.960938 675.59375 491.820312 C 675.675781 491.667969 675.742188 491.542969 675.792969 491.4375 C 675.847656 491.332031 675.933594 491.1875 676.046875 491 C 676.105469 490.917969 676.171875 490.820312 676.242188 490.703125 C 676.308594 490.589844 676.398438 490.488281 676.503906 490.40625 C 676.605469 490.316406 676.757812 490.257812 676.957031 490.234375 C 677.152344 490.210938 677.339844 490.273438 677.511719 490.425781 C 677.605469 490.542969 677.660156 490.644531 677.671875 490.730469 C 677.683594 490.816406 677.636719 490.941406 677.53125 491.105469 C 677.4375 491.304688 677.328125 491.484375 677.207031 491.652344 C 677.085938 491.824219 676.972656 492.007812 676.867188 492.203125 C 676.683594 492.460938 676.648438 492.605469 676.761719 492.640625 C 676.878906 492.675781 677.207031 492.652344 677.738281 492.570312 C 678.078125 492.511719 678.320312 492.542969 678.472656 492.660156 C 678.625 492.773438 678.710938 492.933594 678.734375 493.128906 C 678.769531 493.410156 678.738281 493.578125 678.648438 493.636719 C 678.554688 493.695312 678.285156 493.722656 677.84375 493.722656 C 677.566406 493.769531 677.328125 493.792969 677.128906 493.800781 C 676.933594 493.804688 676.785156 493.808594 676.695312 493.808594 C 676.542969 493.820312 676.445312 493.828125 676.398438 493.828125 C 676.351562 493.828125 676.28125 493.839844 676.1875 493.863281 C 676.09375 493.886719 676.027344 493.921875 675.984375 493.972656 C 675.945312 494.027344 675.902344 494.101562 675.855469 494.195312 C 675.808594 494.242188 675.742188 494.363281 675.648438 494.558594 C 675.554688 494.757812 675.4375 494.972656 675.296875 495.207031 C 675.136719 495.695312 674.996094 496.167969 674.878906 496.625 C 674.765625 497.085938 674.671875 497.539062 674.601562 497.980469 C 674.554688 498.222656 674.5625 498.398438 674.617188 498.503906 C 674.675781 498.609375 674.828125 498.671875 675.070312 498.695312 C 675.199219 498.707031 675.390625 498.703125 675.648438 498.683594 C 675.902344 498.667969 676.113281 498.636719 676.273438 498.589844 C 676.402344 498.53125 676.535156 498.46875 676.675781 498.40625 C 676.816406 498.34375 676.945312 498.277344 677.058594 498.207031 C 677.164062 498.148438 677.269531 498.085938 677.375 498.023438 C 677.480469 497.957031 677.53125 497.925781 677.53125 497.925781 C 677.589844 497.835938 677.667969 497.835938 677.765625 497.925781 C 677.863281 498.019531 677.9375 498.136719 677.984375 498.277344 C 677.984375 498.414062 677.957031 498.574219 677.898438 498.753906 C 677.839844 498.9375 677.625 499.132812 677.25 499.339844 C 676.730469 499.667969 676.21875 499.859375 675.722656 499.921875 C 675.230469 499.988281 674.832031 499.992188 674.53125 499.933594 Z M 678.734375 503.546875 C 678.363281 503.625 677.992188 503.640625 677.625 503.589844 C 677.261719 503.539062 676.945312 503.433594 676.683594 503.285156 C 676.421875 503.132812 676.269531 502.964844 676.222656 502.777344 C 676.175781 502.578125 676.207031 502.421875 676.316406 502.304688 C 676.429688 502.191406 676.558594 502.121094 676.710938 502.097656 C 676.863281 502.074219 676.96875 502.097656 677.023438 502.167969 C 677.117188 502.226562 677.273438 502.304688 677.484375 502.410156 C 677.703125 502.515625 677.960938 502.539062 678.261719 502.480469 C 678.53125 502.421875 678.777344 502.285156 679.003906 502.074219 C 679.230469 501.855469 679.425781 501.636719 679.589844 501.417969 C 679.679688 501.277344 679.839844 501.027344 680.058594 500.667969 C 680.28125 500.304688 680.507812 499.90625 680.746094 499.46875 C 680.984375 499.035156 681.1875 498.632812 681.351562 498.257812 C 681.382812 498.164062 681.425781 498.054688 681.472656 497.925781 C 681.519531 497.800781 681.578125 497.695312 681.644531 497.613281 C 681.714844 497.472656 681.777344 497.34375 681.828125 497.21875 C 681.882812 497.097656 681.914062 497.015625 681.925781 496.96875 C 681.9375 496.910156 681.988281 496.792969 682.082031 496.617188 C 682.175781 496.445312 682.261719 496.269531 682.34375 496.09375 C 682.402344 495.921875 682.488281 495.664062 682.605469 495.328125 C 682.722656 494.992188 682.835938 494.71875 682.953125 494.507812 C 683.09375 494.242188 683.207031 494.023438 683.292969 493.851562 C 683.378906 493.683594 683.476562 493.582031 683.582031 493.546875 C 683.6875 493.46875 683.777344 493.425781 683.851562 493.425781 C 683.925781 493.425781 684.027344 493.460938 684.15625 493.53125 C 684.296875 493.671875 684.402344 493.804688 684.472656 493.9375 C 684.539062 494.074219 684.558594 494.238281 684.53125 494.425781 C 684.503906 494.621094 684.402344 494.878906 684.226562 495.207031 C 684.132812 495.484375 684.03125 495.738281 683.921875 495.964844 C 683.8125 496.191406 683.726562 496.339844 683.667969 496.410156 C 683.609375 496.550781 683.542969 496.703125 683.464844 496.871094 C 683.390625 497.039062 683.324219 497.195312 683.269531 497.335938 C 683.058594 497.800781 682.878906 498.175781 682.726562 498.46875 C 682.574219 498.757812 682.441406 499.027344 682.328125 499.269531 C 682.210938 499.515625 682.085938 499.800781 681.960938 500.125 C 681.691406 500.554688 681.433594 500.964844 681.183594 501.359375 C 680.933594 501.746094 680.667969 502.109375 680.390625 502.445312 C 680.273438 502.550781 680.113281 502.679688 679.910156 502.835938 C 679.707031 502.996094 679.5 503.144531 679.292969 503.285156 C 679.082031 503.421875 678.898438 503.511719 678.734375 503.546875 Z M 680.964844 499.515625 C 680.792969 499.492188 680.609375 499.382812 680.414062 499.183594 C 680.222656 498.984375 680.066406 498.773438 679.945312 498.546875 C 679.824219 498.320312 679.773438 498.160156 679.796875 498.066406 C 679.796875 498.007812 679.796875 497.960938 679.796875 497.925781 C 679.796875 497.890625 679.796875 497.875 679.796875 497.875 C 679.726562 497.875 679.671875 497.777344 679.628906 497.585938 C 679.589844 497.394531 679.558594 497.148438 679.535156 496.847656 C 679.511719 496.542969 679.503906 496.226562 679.507812 495.894531 C 679.515625 495.5625 679.53125 495.257812 679.554688 494.980469 C 679.601562 494.78125 679.625 494.5625 679.625 494.324219 C 679.625 494.085938 679.628906 493.898438 679.640625 493.757812 C 679.628906 493.570312 679.660156 493.429688 679.726562 493.328125 C 679.796875 493.230469 679.855469 493.164062 679.902344 493.128906 C 680.296875 492.957031 680.578125 493.046875 680.746094 493.410156 C 680.917969 493.769531 680.972656 494.367188 680.914062 495.207031 C 680.890625 495.671875 680.882812 496.121094 680.894531 496.554688 C 680.90625 496.992188 680.957031 497.371094 681.042969 497.691406 C 681.132812 498.011719 681.273438 498.234375 681.472656 498.363281 C 681.554688 498.410156 681.589844 498.496094 681.578125 498.625 C 681.566406 498.753906 681.523438 498.886719 681.453125 499.027344 C 681.382812 499.167969 681.304688 499.285156 681.210938 499.382812 C 681.117188 499.484375 681.035156 499.527344 680.964844 499.515625 Z M 689.488281 499.515625 C 689.441406 499.421875 689.355469 499.335938 689.226562 499.253906 C 689.101562 499.171875 689.035156 499.109375 689.035156 499.0625 C 689.035156 499.015625 689.019531 498.949219 688.984375 498.871094 C 688.949219 498.789062 688.910156 498.722656 688.863281 498.675781 C 688.804688 498.609375 688.820312 498.4375 688.90625 498.171875 C 688.992188 497.902344 689.125 497.578125 689.296875 497.195312 C 689.472656 496.8125 689.667969 496.414062 689.890625 496.007812 C 689.984375 495.914062 690.078125 495.792969 690.167969 495.640625 C 690.261719 495.492188 690.332031 495.390625 690.378906 495.34375 C 690.378906 495.296875 690.394531 495.253906 690.429688 495.210938 C 690.464844 495.171875 690.507812 495.152344 690.554688 495.152344 L 690.65625 494.925781 C 690.667969 494.878906 690.734375 494.785156 690.851562 494.648438 C 690.964844 494.507812 691.109375 494.355469 691.285156 494.1875 C 691.460938 494.015625 691.632812 493.855469 691.808594 493.707031 C 691.984375 493.554688 692.128906 493.445312 692.246094 493.375 C 692.488281 493.210938 692.742188 493.125 693.003906 493.117188 C 693.265625 493.113281 693.488281 493.1875 693.675781 493.339844 C 693.710938 493.375 693.78125 493.441406 693.894531 493.539062 C 694.003906 493.636719 694.128906 493.746094 694.265625 493.863281 C 694.40625 493.980469 694.535156 494.089844 694.652344 494.195312 L 695.296875 494.769531 L 695 495.640625 C 694.847656 496.105469 694.8125 496.515625 694.886719 496.863281 C 694.960938 497.210938 695.070312 497.515625 695.210938 497.769531 C 695.265625 497.898438 695.359375 498.003906 695.488281 498.089844 C 695.617188 498.179688 695.761719 498.234375 695.925781 498.257812 C 696.015625 498.269531 696.105469 498.304688 696.1875 498.363281 C 696.265625 498.421875 696.308594 498.515625 696.308594 498.644531 C 696.308594 498.863281 696.265625 499.027344 696.1875 499.132812 C 696.105469 499.234375 696.003906 499.300781 695.890625 499.324219 C 695.503906 499.371094 695.144531 499.3125 694.800781 499.148438 C 694.457031 498.984375 694.144531 498.636719 693.867188 498.101562 C 693.820312 498.03125 693.757812 497.902344 693.683594 497.707031 C 693.609375 497.515625 693.5625 497.390625 693.550781 497.335938 C 693.507812 497.390625 693.4375 497.476562 693.34375 497.585938 C 693.25 497.695312 693.167969 497.789062 693.097656 497.859375 C 692.273438 498.695312 691.566406 499.242188 690.972656 499.503906 C 690.378906 499.765625 689.886719 499.769531 689.488281 499.515625 Z M 690.34375 498.222656 C 690.402344 498.257812 690.53125 498.230469 690.726562 498.136719 C 690.925781 498.042969 691.167969 497.882812 691.460938 497.648438 C 691.855469 497.3125 692.203125 497 692.507812 496.714844 C 692.808594 496.429688 693.082031 496.113281 693.324219 495.765625 L 693.710938 495.136719 C 693.59375 494.867188 693.484375 494.691406 693.378906 494.601562 C 693.273438 494.515625 693.175781 494.472656 693.082031 494.472656 C 692.929688 494.472656 692.738281 494.582031 692.5 494.804688 C 692.261719 495.027344 692 495.335938 691.714844 495.734375 C 691.429688 496.136719 691.121094 496.613281 690.796875 497.160156 C 690.65625 497.402344 690.546875 497.640625 690.464844 497.875 C 690.382812 498.109375 690.34375 498.222656 690.34375 498.222656 Z M 701.035156 499.933594 C 700.917969 499.816406 700.816406 499.65625 700.726562 499.453125 C 700.640625 499.25 700.5625 499.015625 700.492188 498.746094 C 700.46875 498.65625 700.460938 498.539062 700.464844 498.40625 C 700.472656 498.273438 700.46875 498.171875 700.457031 498.101562 C 700.421875 498.183594 700.367188 498.28125 700.289062 498.398438 C 700.214844 498.515625 700.144531 498.601562 700.074219 498.660156 C 700.027344 498.707031 699.921875 498.796875 699.761719 498.929688 C 699.597656 499.0625 699.433594 499.171875 699.273438 499.253906 C 698.886719 499.496094 698.558594 499.617188 698.277344 499.609375 C 698 499.605469 697.75 499.460938 697.527344 499.183594 C 697.34375 499.03125 697.195312 498.847656 697.09375 498.632812 C 696.988281 498.417969 696.96875 498.148438 697.039062 497.824219 C 697.0625 497.414062 697.121094 497.015625 697.214844 496.625 C 697.308594 496.238281 697.5 495.71875 697.789062 495.066406 C 698.035156 494.589844 698.21875 494.222656 698.347656 493.96875 C 698.476562 493.710938 698.558594 493.558594 698.59375 493.511719 C 698.765625 493.457031 698.957031 493.457031 699.167969 493.519531 C 699.375 493.585938 699.492188 493.699219 699.515625 493.863281 C 699.585938 493.980469 699.582031 494.191406 699.503906 494.496094 C 699.429688 494.808594 699.289062 495.164062 699.082031 495.570312 C 698.917969 495.96875 698.765625 496.355469 698.625 496.730469 C 698.488281 497.109375 698.402344 497.433594 698.371094 497.699219 C 698.34375 497.96875 698.410156 498.132812 698.574219 498.1875 C 698.679688 498.246094 698.84375 498.234375 699.070312 498.152344 C 699.296875 498.074219 699.558594 497.855469 699.855469 497.5 C 700.152344 497.144531 700.457031 496.589844 700.773438 495.832031 C 700.863281 495.601562 700.933594 495.394531 700.980469 495.210938 C 701.027344 495.035156 701.054688 494.832031 701.066406 494.613281 C 701.042969 494.472656 701.070312 494.332031 701.144531 494.195312 C 701.222656 494.054688 701.328125 493.945312 701.46875 493.863281 C 701.515625 493.804688 701.578125 493.75 701.660156 493.695312 C 701.742188 493.644531 701.792969 493.648438 701.816406 493.707031 L 702.097656 493.6875 C 702.144531 493.675781 702.191406 493.71875 702.238281 493.808594 C 702.28125 493.902344 702.335938 493.972656 702.394531 494.019531 C 702.519531 494.125 702.570312 494.351562 702.539062 494.699219 C 702.511719 495.046875 702.363281 495.539062 702.097656 496.164062 C 701.875 496.640625 701.726562 497.003906 701.652344 497.246094 C 701.574219 497.492188 701.53125 497.730469 701.523438 497.960938 C 701.523438 498.171875 701.546875 498.355469 701.597656 498.515625 C 701.652344 498.667969 701.765625 498.824219 701.941406 498.972656 C 702.066406 499.054688 702.140625 499.179688 702.15625 499.339844 C 702.175781 499.503906 702.179688 499.65625 702.167969 499.792969 C 702.144531 499.898438 702.0625 499.976562 701.921875 500.03125 C 701.78125 500.082031 701.628906 500.101562 701.457031 500.082031 C 701.292969 500.066406 701.148438 500.015625 701.035156 499.933594 Z M 704.644531 499.933594 C 704.515625 499.910156 704.378906 499.835938 704.230469 499.714844 C 704.085938 499.59375 703.957031 499.449219 703.839844 499.289062 C 703.722656 499.125 703.648438 498.984375 703.613281 498.871094 C 703.613281 498.847656 703.597656 498.816406 703.570312 498.78125 C 703.539062 498.746094 703.527344 498.730469 703.527344 498.730469 C 703.480469 498.695312 703.453125 498.539062 703.445312 498.265625 C 703.441406 497.992188 703.457031 497.6875 703.492188 497.351562 C 703.527344 497.015625 703.566406 496.746094 703.613281 496.550781 C 703.671875 496.363281 703.757812 496.109375 703.875 495.789062 C 703.992188 495.46875 704.089844 495.183594 704.171875 494.925781 L 704.644531 493.914062 L 703.945312 493.722656 C 703.863281 493.699219 703.796875 493.652344 703.742188 493.582031 C 703.691406 493.511719 703.667969 493.457031 703.667969 493.410156 C 703.667969 493.316406 703.71875 493.1875 703.824219 493.023438 C 703.929688 492.863281 704.003906 492.78125 704.050781 492.78125 C 704.109375 492.792969 704.214844 492.796875 704.371094 492.796875 C 704.527344 492.796875 704.683594 492.792969 704.835938 492.78125 C 704.984375 492.769531 705.078125 492.757812 705.113281 492.746094 C 705.160156 492.722656 705.207031 492.691406 705.253906 492.648438 C 705.300781 492.609375 705.335938 492.546875 705.359375 492.464844 C 705.414062 492.339844 705.46875 492.234375 705.515625 492.152344 C 705.5625 492.070312 705.625 491.960938 705.707031 491.820312 C 705.789062 491.667969 705.855469 491.542969 705.90625 491.4375 C 705.957031 491.332031 706.042969 491.1875 706.160156 491 C 706.21875 490.917969 706.28125 490.820312 706.351562 490.703125 C 706.421875 490.589844 706.507812 490.488281 706.613281 490.40625 C 706.71875 490.316406 706.867188 490.257812 707.066406 490.234375 C 707.265625 490.210938 707.449219 490.273438 707.625 490.425781 C 707.71875 490.542969 707.769531 490.644531 707.78125 490.730469 C 707.792969 490.816406 707.746094 490.941406 707.640625 491.105469 C 707.550781 491.304688 707.441406 491.484375 707.316406 491.652344 C 707.195312 491.824219 707.085938 492.007812 706.980469 492.203125 C 706.792969 492.460938 706.757812 492.605469 706.875 492.640625 C 706.992188 492.675781 707.316406 492.652344 707.851562 492.570312 C 708.1875 492.511719 708.433594 492.542969 708.582031 492.660156 C 708.734375 492.773438 708.820312 492.933594 708.84375 493.128906 C 708.878906 493.410156 708.851562 493.578125 708.757812 493.636719 C 708.664062 493.695312 708.398438 493.722656 707.957031 493.722656 C 707.675781 493.769531 707.4375 493.792969 707.242188 493.800781 C 707.042969 493.804688 706.898438 493.808594 706.804688 493.808594 C 706.652344 493.820312 706.554688 493.828125 706.507812 493.828125 C 706.460938 493.828125 706.390625 493.839844 706.300781 493.863281 C 706.207031 493.886719 706.140625 493.921875 706.097656 493.972656 C 706.058594 494.027344 706.015625 494.101562 705.96875 494.195312 C 705.921875 494.242188 705.851562 494.363281 705.757812 494.558594 C 705.664062 494.757812 705.550781 494.972656 705.410156 495.207031 C 705.246094 495.695312 705.109375 496.167969 704.992188 496.625 C 704.875 497.085938 704.78125 497.539062 704.710938 497.980469 C 704.667969 498.222656 704.671875 498.398438 704.730469 498.503906 C 704.789062 498.609375 704.9375 498.671875 705.183594 498.695312 C 705.3125 498.707031 705.503906 498.703125 705.757812 498.683594 C 706.015625 498.667969 706.222656 498.636719 706.386719 498.589844 C 706.515625 498.53125 706.648438 498.46875 706.789062 498.40625 C 706.925781 498.34375 707.054688 498.277344 707.171875 498.207031 C 707.277344 498.148438 707.378906 498.085938 707.484375 498.023438 C 707.589844 497.957031 707.640625 497.925781 707.640625 497.925781 C 707.699219 497.835938 707.777344 497.835938 707.875 497.925781 C 707.976562 498.019531 708.050781 498.136719 708.09375 498.277344 C 708.09375 498.414062 708.066406 498.574219 708.007812 498.753906 C 707.949219 498.9375 707.734375 499.132812 707.363281 499.339844 C 706.839844 499.667969 706.332031 499.859375 705.835938 499.921875 C 705.34375 499.988281 704.945312 499.992188 704.644531 499.933594 Z M 710.304688 499.792969 C 710.15625 499.792969 710.035156 499.765625 709.949219 499.707031 C 709.863281 499.648438 709.753906 499.566406 709.625 499.460938 C 709.40625 499.230469 709.238281 498.988281 709.121094 498.738281 C 709.003906 498.488281 708.964844 498.265625 709 498.066406 C 709.035156 497.972656 709.046875 497.882812 709.042969 497.792969 C 709.039062 497.707031 709.035156 497.664062 709.035156 497.664062 C 708.976562 497.609375 708.957031 497.570312 708.980469 497.550781 C 709.003906 497.535156 709.027344 497.503906 709.050781 497.457031 C 709.121094 497.457031 709.144531 497.390625 709.121094 497.265625 C 709.097656 497.171875 709.136719 496.972656 709.242188 496.664062 C 709.347656 496.355469 709.488281 496.0625 709.660156 495.78125 C 709.730469 495.664062 709.835938 495.511719 709.976562 495.316406 C 710.113281 495.125 710.269531 494.933594 710.4375 494.742188 C 710.605469 494.550781 710.761719 494.398438 710.898438 494.28125 C 711.191406 494.035156 711.457031 493.84375 711.695312 493.707031 C 711.933594 493.566406 712.179688 493.46875 712.433594 493.410156 C 712.691406 493.351562 712.925781 493.320312 713.140625 493.320312 C 713.355469 493.320312 713.550781 493.414062 713.722656 493.601562 C 713.992188 493.71875 714.183594 493.867188 714.300781 494.054688 C 714.417969 494.242188 714.492188 494.492188 714.527344 494.804688 C 714.5625 495.152344 714.53125 495.570312 714.433594 496.0625 C 714.332031 496.550781 714.050781 497.125 713.585938 497.789062 C 713.292969 498.207031 713.015625 498.527344 712.746094 498.746094 C 712.480469 498.96875 712.179688 499.179688 711.839844 499.375 C 711.597656 499.539062 711.347656 499.644531 711.089844 499.691406 C 710.835938 499.734375 710.574219 499.769531 710.304688 499.792969 Z M 712.050781 497.769531 C 712.316406 497.515625 712.515625 497.25 712.644531 496.976562 C 712.769531 496.703125 712.90625 496.375 713.042969 495.992188 C 713.089844 495.910156 713.125 495.78125 713.140625 495.605469 C 713.160156 495.433594 713.160156 495.265625 713.140625 495.101562 C 713.125 494.9375 713.078125 494.84375 713.007812 494.820312 C 712.894531 494.742188 712.769531 494.71875 712.636719 494.757812 C 712.5 494.800781 712.339844 494.890625 712.15625 495.03125 C 711.804688 495.320312 711.488281 495.667969 711.195312 496.066406 C 710.90625 496.46875 710.679688 496.949219 710.515625 497.507812 C 710.433594 497.847656 710.445312 498.105469 710.542969 498.285156 C 710.640625 498.464844 710.820312 498.519531 711.085938 498.449219 C 711.34375 498.382812 711.667969 498.152344 712.050781 497.769531 Z M 723.417969 499.445312 C 723.351562 499.421875 723.238281 499.351562 723.082031 499.234375 C 722.921875 499.121094 722.785156 498.9375 722.667969 498.695312 C 722.554688 498.449219 722.5 498.125 722.511719 497.71875 C 722.523438 497.371094 722.546875 497.113281 722.574219 496.949219 C 722.605469 496.789062 722.570312 496.699219 722.476562 496.6875 C 722.410156 496.675781 722.273438 496.742188 722.070312 496.878906 C 721.867188 497.019531 721.617188 497.226562 721.320312 497.5 C 721.023438 497.773438 720.683594 498.109375 720.296875 498.503906 C 720.171875 498.632812 720.03125 498.765625 719.878906 498.910156 C 719.730469 499.058594 719.582031 499.164062 719.4375 499.226562 C 719.289062 499.289062 719.152344 499.269531 719.027344 499.167969 L 718.832031 499.007812 C 718.765625 498.9375 718.710938 498.855469 718.667969 498.753906 C 718.628906 498.65625 718.617188 498.566406 718.640625 498.484375 L 719.09375 497.195312 C 719.246094 496.855469 719.351562 496.609375 719.410156 496.453125 C 719.46875 496.296875 719.496094 496.195312 719.496094 496.15625 C 719.496094 496.117188 719.46875 496.101562 719.410156 496.113281 C 719.339844 496.125 719.230469 496.183594 719.078125 496.289062 C 718.925781 496.390625 718.828125 496.484375 718.78125 496.566406 C 718.734375 496.566406 718.671875 496.613281 718.589844 496.707031 C 718.507812 496.800781 718.421875 496.886719 718.328125 496.96875 C 718.257812 497.0625 718.125 497.207031 717.925781 497.410156 C 717.730469 497.617188 717.527344 497.824219 717.316406 498.03125 C 717.164062 498.171875 717 498.347656 716.820312 498.5625 C 716.640625 498.777344 716.484375 498.972656 716.351562 499.148438 C 716.214844 499.324219 716.128906 499.410156 716.097656 499.410156 C 715.910156 499.398438 715.738281 499.335938 715.582031 499.226562 C 715.425781 499.117188 715.316406 498.96875 715.257812 498.78125 C 715.1875 498.632812 715.1875 498.382812 715.257812 498.03125 C 715.328125 497.683594 715.433594 497.160156 715.574219 496.460938 C 715.621094 496.289062 715.660156 496.144531 715.695312 496.03125 C 715.730469 495.921875 715.769531 495.8125 715.808594 495.695312 C 715.847656 495.578125 715.902344 495.433594 715.96875 495.265625 C 716.03125 495.097656 716.125 494.875 716.253906 494.59375 C 716.324219 494.410156 716.355469 494.25 716.351562 494.113281 C 716.34375 493.980469 716.339844 493.878906 716.339844 493.808594 C 716.339844 493.648438 716.386719 493.519531 716.480469 493.425781 C 716.574219 493.332031 716.679688 493.265625 716.804688 493.222656 C 716.925781 493.183594 717.027344 493.175781 717.105469 493.199219 C 717.375 493.234375 717.5625 493.332031 717.675781 493.496094 C 717.785156 493.660156 717.84375 493.832031 717.855469 494.019531 C 717.867188 494.183594 717.847656 494.328125 717.796875 494.460938 C 717.746094 494.597656 717.699219 494.710938 717.664062 494.804688 L 717.472656 495.277344 C 717.378906 495.496094 717.300781 495.6875 717.230469 495.851562 C 717.160156 496.015625 717.113281 496.140625 717.089844 496.234375 C 717.066406 496.328125 717.054688 496.390625 717.054688 496.425781 C 717.066406 496.460938 717.113281 496.445312 717.195312 496.382812 C 717.277344 496.320312 717.378906 496.230469 717.507812 496.113281 C 717.636719 495.996094 717.757812 495.890625 717.875 495.800781 C 718.09375 495.613281 718.335938 495.421875 718.601562 495.230469 C 718.859375 495.039062 719.117188 494.871094 719.367188 494.722656 C 719.617188 494.578125 719.816406 494.484375 719.96875 494.4375 C 720.164062 494.460938 720.332031 494.539062 720.464844 494.671875 C 720.597656 494.808594 720.710938 494.945312 720.804688 495.082031 C 720.875 495.222656 720.898438 495.359375 720.875 495.492188 C 720.851562 495.625 720.828125 495.753906 720.804688 495.867188 C 720.792969 495.914062 720.765625 496.011719 720.726562 496.15625 C 720.683594 496.300781 720.644531 496.4375 720.605469 496.566406 C 720.5625 496.695312 720.542969 496.757812 720.542969 496.757812 C 720.542969 496.757812 720.585938 496.71875 720.675781 496.636719 C 720.761719 496.554688 720.871094 496.457031 721.007812 496.347656 C 721.140625 496.238281 721.257812 496.140625 721.363281 496.0625 C 721.898438 495.652344 722.335938 495.390625 722.679688 495.277344 C 723.023438 495.160156 723.308594 495.269531 723.542969 495.605469 C 723.679688 495.734375 723.765625 495.898438 723.796875 496.09375 C 723.824219 496.292969 723.839844 496.578125 723.839844 496.949219 C 723.851562 497.101562 723.863281 497.273438 723.882812 497.464844 C 723.898438 497.65625 723.917969 497.828125 723.941406 497.980469 C 723.964844 498.132812 723.988281 498.222656 724.011719 498.257812 C 724.046875 498.304688 724.113281 498.347656 724.203125 498.382812 C 724.296875 498.414062 724.402344 498.445312 724.519531 498.46875 C 724.679688 498.527344 724.773438 498.648438 724.796875 498.835938 C 724.820312 499.019531 724.738281 499.171875 724.554688 499.289062 C 724.378906 499.394531 724.191406 499.449219 723.996094 499.460938 C 723.796875 499.472656 723.605469 499.46875 723.417969 499.445312 Z M 725.566406 499.515625 C 725.519531 499.421875 725.429688 499.335938 725.304688 499.253906 C 725.175781 499.171875 725.109375 499.109375 725.109375 499.0625 C 725.109375 499.015625 725.09375 498.949219 725.058594 498.871094 C 725.023438 498.789062 724.984375 498.722656 724.9375 498.675781 C 724.878906 498.609375 724.894531 498.4375 724.980469 498.171875 C 725.066406 497.902344 725.199219 497.578125 725.371094 497.195312 C 725.546875 496.8125 725.746094 496.414062 725.964844 496.007812 C 726.058594 495.914062 726.152344 495.792969 726.246094 495.640625 C 726.335938 495.492188 726.40625 495.390625 726.453125 495.34375 C 726.453125 495.296875 726.472656 495.253906 726.507812 495.210938 C 726.542969 495.171875 726.582031 495.152344 726.628906 495.152344 L 726.734375 494.925781 C 726.746094 494.878906 726.808594 494.785156 726.925781 494.648438 C 727.039062 494.507812 727.1875 494.355469 727.359375 494.1875 C 727.535156 494.015625 727.710938 493.855469 727.882812 493.707031 C 728.058594 493.554688 728.203125 493.445312 728.320312 493.375 C 728.5625 493.210938 728.816406 493.125 729.078125 493.117188 C 729.339844 493.113281 729.5625 493.1875 729.75 493.339844 C 729.785156 493.375 729.855469 493.441406 729.964844 493.539062 C 730.078125 493.636719 730.203125 493.746094 730.34375 493.863281 C 730.480469 493.980469 730.609375 494.089844 730.726562 494.195312 L 731.371094 494.769531 L 731.074219 495.640625 C 730.921875 496.105469 730.886719 496.515625 730.960938 496.863281 C 731.035156 497.210938 731.144531 497.515625 731.285156 497.769531 C 731.34375 497.898438 731.433594 498.003906 731.5625 498.089844 C 731.691406 498.179688 731.835938 498.234375 732 498.257812 C 732.09375 498.269531 732.179688 498.304688 732.261719 498.363281 C 732.34375 498.421875 732.382812 498.515625 732.382812 498.644531 C 732.382812 498.863281 732.34375 499.027344 732.261719 499.132812 C 732.179688 499.234375 732.082031 499.300781 731.964844 499.324219 C 731.582031 499.371094 731.214844 499.3125 730.871094 499.148438 C 730.53125 498.984375 730.21875 498.636719 729.941406 498.101562 C 729.894531 498.03125 729.832031 497.902344 729.757812 497.707031 C 729.683594 497.515625 729.640625 497.390625 729.628906 497.335938 C 729.582031 497.390625 729.511719 497.476562 729.417969 497.585938 C 729.324219 497.695312 729.242188 497.789062 729.175781 497.859375 C 728.347656 498.695312 727.640625 499.242188 727.046875 499.503906 C 726.453125 499.765625 725.960938 499.769531 725.566406 499.515625 Z M 726.417969 498.222656 C 726.476562 498.257812 726.605469 498.230469 726.800781 498.136719 C 727 498.042969 727.246094 497.882812 727.535156 497.648438 C 727.929688 497.3125 728.277344 497 728.582031 496.714844 C 728.882812 496.429688 729.15625 496.113281 729.402344 495.765625 L 729.785156 495.136719 C 729.667969 494.867188 729.558594 494.691406 729.453125 494.601562 C 729.347656 494.515625 729.25 494.472656 729.15625 494.472656 C 729.003906 494.472656 728.808594 494.582031 728.570312 494.804688 C 728.332031 495.027344 728.070312 495.335938 727.785156 495.734375 C 727.503906 496.136719 727.199219 496.613281 726.871094 497.160156 C 726.734375 497.402344 726.621094 497.640625 726.542969 497.875 C 726.460938 498.109375 726.417969 498.222656 726.417969 498.222656 Z M 734.265625 499.933594 C 734.136719 499.910156 734 499.835938 733.855469 499.714844 C 733.710938 499.59375 733.578125 499.449219 733.464844 499.289062 C 733.347656 499.125 733.273438 498.984375 733.238281 498.871094 C 733.238281 498.847656 733.222656 498.816406 733.191406 498.78125 C 733.164062 498.746094 733.148438 498.730469 733.148438 498.730469 C 733.101562 498.695312 733.078125 498.539062 733.070312 498.265625 C 733.066406 497.992188 733.082031 497.6875 733.113281 497.351562 C 733.148438 497.015625 733.191406 496.746094 733.238281 496.550781 C 733.296875 496.363281 733.382812 496.109375 733.5 495.789062 C 733.613281 495.46875 733.714844 495.183594 733.796875 494.925781 L 734.265625 493.914062 L 733.570312 493.722656 C 733.488281 493.699219 733.417969 493.652344 733.367188 493.582031 C 733.316406 493.511719 733.289062 493.457031 733.289062 493.410156 C 733.289062 493.316406 733.339844 493.1875 733.445312 493.023438 C 733.550781 492.863281 733.625 492.78125 733.671875 492.78125 C 733.730469 492.792969 733.839844 492.796875 733.992188 492.796875 C 734.152344 492.796875 734.304688 492.792969 734.457031 492.78125 C 734.609375 492.769531 734.703125 492.757812 734.738281 492.746094 C 734.785156 492.722656 734.828125 492.691406 734.875 492.648438 C 734.921875 492.609375 734.957031 492.546875 734.980469 492.464844 C 735.039062 492.339844 735.089844 492.234375 735.136719 492.152344 C 735.183594 492.070312 735.25 491.960938 735.328125 491.820312 C 735.410156 491.667969 735.476562 491.542969 735.527344 491.4375 C 735.582031 491.332031 735.667969 491.1875 735.78125 491 C 735.839844 490.917969 735.90625 490.820312 735.976562 490.703125 C 736.042969 490.589844 736.132812 490.488281 736.238281 490.40625 C 736.339844 490.316406 736.492188 490.257812 736.691406 490.234375 C 736.886719 490.210938 737.074219 490.273438 737.246094 490.425781 C 737.339844 490.542969 737.394531 490.644531 737.40625 490.730469 C 737.417969 490.816406 737.371094 490.941406 737.265625 491.105469 C 737.171875 491.304688 737.0625 491.484375 736.941406 491.652344 C 736.820312 491.824219 736.707031 492.007812 736.601562 492.203125 C 736.417969 492.460938 736.382812 492.605469 736.496094 492.640625 C 736.613281 492.675781 736.941406 492.652344 737.472656 492.570312 C 737.8125 492.511719 738.054688 492.542969 738.207031 492.660156 C 738.359375 492.773438 738.445312 492.933594 738.46875 493.128906 C 738.503906 493.410156 738.472656 493.578125 738.382812 493.636719 C 738.289062 493.695312 738.019531 493.722656 737.578125 493.722656 C 737.300781 493.769531 737.0625 493.792969 736.863281 493.800781 C 736.667969 493.804688 736.519531 493.808594 736.429688 493.808594 C 736.277344 493.820312 736.179688 493.828125 736.132812 493.828125 C 736.085938 493.828125 736.015625 493.839844 735.921875 493.863281 C 735.828125 493.886719 735.761719 493.921875 735.71875 493.972656 C 735.679688 494.027344 735.636719 494.101562 735.589844 494.195312 C 735.542969 494.242188 735.476562 494.363281 735.382812 494.558594 C 735.289062 494.757812 735.171875 494.972656 735.03125 495.207031 C 734.871094 495.695312 734.730469 496.167969 734.613281 496.625 C 734.5 497.085938 734.40625 497.539062 734.335938 497.980469 C 734.289062 498.222656 734.296875 498.398438 734.351562 498.503906 C 734.410156 498.609375 734.5625 498.671875 734.804688 498.695312 C 734.933594 498.707031 735.125 498.703125 735.382812 498.683594 C 735.636719 498.667969 735.847656 498.636719 736.007812 498.589844 C 736.136719 498.53125 736.269531 498.46875 736.410156 498.40625 C 736.550781 498.34375 736.679688 498.277344 736.792969 498.207031 C 736.898438 498.148438 737.003906 498.085938 737.109375 498.023438 C 737.210938 497.957031 737.265625 497.925781 737.265625 497.925781 C 737.324219 497.835938 737.402344 497.835938 737.5 497.925781 C 737.597656 498.019531 737.671875 498.136719 737.71875 498.277344 C 737.71875 498.414062 737.691406 498.574219 737.632812 498.753906 C 737.574219 498.9375 737.359375 499.132812 736.984375 499.339844 C 736.464844 499.667969 735.953125 499.859375 735.457031 499.921875 C 734.964844 499.988281 734.566406 499.992188 734.265625 499.933594 Z M 742.003906 499.53125 C 741.691406 499.730469 741.351562 499.847656 740.988281 499.882812 C 740.617188 499.917969 740.273438 499.867188 739.945312 499.730469 C 739.621094 499.597656 739.359375 499.394531 739.164062 499.113281 C 739.011719 498.929688 738.894531 498.667969 738.808594 498.339844 C 738.71875 498.007812 738.703125 497.5625 738.761719 497.003906 C 738.820312 496.503906 738.980469 495.992188 739.242188 495.472656 C 739.503906 494.957031 739.824219 494.5 740.203125 494.097656 C 740.578125 493.695312 740.976562 493.421875 741.394531 493.269531 C 741.570312 493.199219 741.730469 493.15625 741.882812 493.136719 C 742.035156 493.121094 742.242188 493.125 742.511719 493.148438 C 742.777344 493.183594 743.003906 493.242188 743.191406 493.328125 C 743.375 493.417969 743.515625 493.519531 743.609375 493.636719 C 743.785156 493.820312 743.898438 494 743.957031 494.164062 C 744.015625 494.335938 744.046875 494.503906 744.046875 494.664062 C 743.988281 495.003906 743.816406 495.375 743.539062 495.78125 C 743.261719 496.1875 742.875 496.503906 742.386719 496.722656 C 742.167969 496.804688 741.917969 496.851562 741.636719 496.863281 C 741.359375 496.875 741.035156 496.828125 740.660156 496.722656 C 740.40625 496.652344 740.238281 496.675781 740.15625 496.792969 C 740.074219 496.910156 740.027344 497.160156 740.015625 497.542969 C 740.015625 497.824219 740.0625 498.050781 740.148438 498.222656 C 740.234375 498.398438 740.382812 498.507812 740.59375 498.554688 C 740.847656 498.601562 741.039062 498.617188 741.160156 498.597656 C 741.28125 498.582031 741.429688 498.527344 741.605469 498.433594 C 741.730469 498.351562 741.832031 498.285156 741.910156 498.230469 C 741.984375 498.179688 742.054688 498.125 742.121094 498.066406 C 742.183594 498.007812 742.253906 497.949219 742.335938 497.890625 C 742.40625 497.835938 742.46875 497.792969 742.519531 497.769531 C 742.570312 497.746094 742.625 497.734375 742.683594 497.734375 C 742.789062 497.746094 742.886719 497.804688 742.980469 497.910156 C 743.074219 498.015625 743.136719 498.109375 743.171875 498.1875 C 743.21875 498.246094 743.195312 498.359375 743.097656 498.519531 C 742.996094 498.683594 742.851562 498.855469 742.660156 499.035156 C 742.46875 499.214844 742.25 499.382812 742.003906 499.53125 Z M 741.847656 495.710938 C 741.953125 495.664062 742.082031 495.582031 742.230469 495.457031 C 742.382812 495.335938 742.515625 495.207031 742.632812 495.066406 C 742.75 494.925781 742.808594 494.808594 742.808594 494.71875 C 742.808594 494.578125 742.726562 494.460938 742.5625 494.359375 C 742.398438 494.261719 742.179688 494.246094 741.898438 494.316406 C 741.796875 494.339844 741.671875 494.410156 741.535156 494.523438 C 741.394531 494.640625 741.257812 494.773438 741.125 494.917969 C 740.992188 495.0625 740.878906 495.195312 740.785156 495.316406 C 740.691406 495.441406 740.640625 495.53125 740.628906 495.589844 C 740.671875 495.648438 740.769531 495.691406 740.917969 495.71875 C 741.0625 495.75 741.222656 495.765625 741.40625 495.765625 C 741.582031 495.765625 741.730469 495.746094 741.847656 495.710938 Z M 749.222656 500.300781 C 749.074219 500.335938 748.933594 500.304688 748.804688 500.207031 C 748.675781 500.105469 748.585938 499.992188 748.527344 499.863281 C 748.445312 499.644531 748.394531 499.425781 748.371094 499.207031 C 748.347656 498.992188 748.335938 498.769531 748.335938 498.539062 L 748.335938 498.015625 L 747.636719 498.625 C 747.242188 498.996094 746.867188 499.257812 746.515625 499.410156 C 746.160156 499.5625 745.839844 499.636719 745.5625 499.636719 C 745.433594 499.613281 745.289062 499.542969 745.125 499.429688 C 744.964844 499.3125 744.816406 499.175781 744.691406 499.015625 C 744.5625 498.859375 744.46875 498.722656 744.410156 498.609375 C 744.339844 498.445312 744.320312 498.21875 744.351562 497.933594 C 744.378906 497.652344 744.449219 497.335938 744.5625 496.992188 C 744.671875 496.648438 744.808594 496.3125 744.980469 495.980469 C 745.148438 495.648438 745.339844 495.363281 745.5625 495.117188 C 745.945312 494.535156 746.402344 494.175781 746.933594 494.035156 C 747.460938 493.898438 747.9375 493.949219 748.371094 494.195312 C 748.613281 494.308594 748.78125 494.355469 748.867188 494.332031 C 748.953125 494.308594 749.015625 494.21875 749.050781 494.054688 C 749.097656 493.867188 749.144531 493.6875 749.199219 493.511719 C 749.25 493.339844 749.328125 493.089844 749.433594 492.761719 C 749.722656 491.878906 749.976562 491.1875 750.195312 490.6875 C 750.40625 490.1875 750.601562 489.75 750.777344 489.378906 C 750.902344 489.109375 751.027344 488.929688 751.140625 488.835938 C 751.257812 488.746094 751.363281 488.703125 751.457031 488.714844 C 751.582031 488.714844 751.730469 488.761719 751.890625 488.855469 C 752.054688 488.949219 752.164062 489.074219 752.222656 489.238281 C 752.269531 489.34375 752.289062 489.449219 752.285156 489.554688 C 752.277344 489.65625 752.242188 489.773438 752.171875 489.902344 C 752.019531 490.179688 751.84375 490.550781 751.640625 491.007812 C 751.4375 491.46875 751.234375 491.972656 751.03125 492.519531 C 750.824219 493.066406 750.636719 493.605469 750.460938 494.140625 C 750.289062 494.675781 750.140625 495.148438 750.027344 495.554688 C 749.957031 495.8125 749.898438 496.136719 749.851562 496.53125 C 749.804688 496.925781 749.769531 497.332031 749.746094 497.742188 C 749.722656 498.15625 749.714844 498.523438 749.722656 498.839844 C 749.726562 499.164062 749.742188 499.371094 749.765625 499.460938 C 749.835938 499.695312 749.847656 499.871094 749.800781 499.984375 C 749.753906 500.101562 749.675781 500.179688 749.574219 500.222656 C 749.46875 500.261719 749.351562 500.289062 749.222656 500.300781 Z M 746.328125 498.242188 C 746.492188 498.195312 746.640625 498.128906 746.777344 498.039062 C 746.90625 497.953125 747.0625 497.847656 747.234375 497.71875 C 747.585938 497.449219 747.855469 497.214844 748.046875 497.011719 C 748.238281 496.808594 748.382812 496.53125 748.472656 496.183594 C 748.519531 495.996094 748.515625 495.839844 748.457031 495.710938 C 748.398438 495.582031 748.304688 495.460938 748.175781 495.34375 C 748.039062 495.242188 747.863281 495.195312 747.65625 495.210938 C 747.445312 495.230469 747.210938 495.355469 746.957031 495.589844 C 746.679688 495.84375 746.429688 496.15625 746.207031 496.519531 C 745.984375 496.890625 745.8125 497.386719 745.683594 498.015625 C 745.660156 498.132812 745.703125 498.21875 745.804688 498.277344 C 745.910156 498.335938 746.085938 498.324219 746.328125 498.242188 Z M 746.328125 498.242188" style="stroke:none;fill-rule:nonzero;fill:rgb(10.196078%,10.196078%,10.196078%);fill-opacity:1;"/>
</g>
<g clip-rule="nonzero" clip-path="url(#clip5)">
<path d="M 534.078125 466.011719 C 536.96875 463.65625 539.160156 460.597656 540.304688 457.117188 L 560.71875 451.519531 L 581.042969 488.363281 L 563.066406 446.632812 L 540.828125 455.132812 C 541.066406 453.96875 541.207031 452.765625 541.207031 451.535156 C 541.207031 451.027344 541.164062 450.53125 541.121094 450.035156 L 549.445312 441.511719 L 552.785156 443.238281 L 549.917969 441.027344 L 552.976562 437.894531 L 577.527344 453.390625 L 552.980469 431.1875 L 547.675781 439.289062 L 542 434.898438 L 537.898438 441.164062 C 534.148438 435.761719 527.574219 432.167969 520.070312 432.167969 C 515.292969 432.167969 510.902344 433.640625 507.359375 436.085938 L 503.691406 428.085938 L 492.15625 435.933594 L 484.132812 428.085938 L 462.976562 456.941406 L 484.132812 434.824219 L 489.058594 438.039062 L 487.542969 439.070312 L 489.351562 438.230469 L 500.09375 445.238281 C 499.339844 447.230469 498.945312 449.34375 498.933594 451.476562 L 481.980469 444.519531 L 457.464844 484.957031 L 483.765625 449.652344 L 499.027344 453.304688 C 499.382812 456.890625 500.8125 460.179688 503.007812 462.929688 C 502.6875 463.605469 502.445312 464.316406 502.289062 465.046875 L 480.59375 467.496094 L 473.609375 509.914062 L 484.511719 470.582031 L 502.078125 466.824219 C 501.972656 470.382812 503.824219 473.703125 506.832031 475.949219 C 506.714844 476.148438 506.613281 476.351562 506.550781 476.574219 C 506.105469 478.246094 507.539062 480.128906 509.875 481.199219 C 508.886719 479.957031 508.453125 478.515625 508.695312 477.121094 C 510.144531 477.882812 511.777344 478.417969 513.53125 478.671875 C 513.351562 479.828125 512.285156 480.738281 510.703125 481.28125 C 513.453125 481.371094 515.609375 480.578125 515.800781 479.292969 C 515.816406 479.140625 515.808594 478.984375 515.777344 478.832031 C 522.132812 478.8125 527.5 474.859375 528.335938 469.359375 C 529.746094 468.808594 531.066406 468.113281 532.296875 467.3125 L 549.140625 470.957031 L 556.238281 509.914062 L 552.785156 466.011719 Z M 542 437.648438 L 547.039062 440.261719 L 541.070312 449.386719 C 540.726562 446.546875 539.703125 443.90625 538.167969 441.574219 Z M 500.539062 444.128906 L 492.847656 436.609375 L 501.734375 432.488281 L 505.933594 437.167969 C 503.613281 439.082031 501.75 441.449219 500.539062 444.128906" style="stroke:none;fill-rule:nonzero;fill:rgb(87.45098%,64.313725%,42.745098%);fill-opacity:1;"/>
</g>
</g>
</svg>